<?xml version="1.0" encoding="UTF-8"?>
<svg width="77px" height="103px" viewBox="0 0 77 103" version="1.1" xmlns="http://www.w3.org/2000/svg" xmlns:xlink="http://www.w3.org/1999/xlink">
    <!-- Generator: sketchtool 64 (101010) - https://sketch.com -->
    <title>916E967C-822C-4CCC-8CDB-A6BE8E33956E</title>
    <desc>Created with sketchtool.</desc>
    <g id="Page-1" stroke="none" stroke-width="1" fill="none" fill-rule="evenodd">
        <g id="iPhone-11-Copy" transform="translate(-71.000000, -252.000000)">
            <g id="009-bell-pepper" transform="translate(71.000000, 252.000000)">
                <path d="M51.232,1.5 L49.6476,1.5 C44.036,1.5 38.889,4.7266 36.564,9.8328 C34.961,13.3546 33.5968,20.918 33.5968,25.5484 L43.2164,25.5484 C43.2164,22.2 43.496,15.925 43.8218,13.4868 C44.2484,10.2946 46.9602,7.9124 50.1812,7.9124 L51.2328,7.9124 C53.0032,7.9124 54.439,6.4774 54.439,4.7062 C54.439,2.936 53.0032,1.5 51.232,1.5 Z" id="Fill-1" fill="#96CD82"></path>
                <g id="Group-8">
                    <path d="M39.3718,13.6406 C39.7312,8.6062 43.9196,4.7062 48.9664,4.7062 L54.439,4.7062 C54.439,2.9352 53.0032,1.5 51.232,1.5 L49.6476,1.5 C44.036,1.5 38.889,4.7266 36.564,9.8328 C34.961,13.3546 33.5968,20.918 33.5968,25.5484 L38.521,25.5484 L39.3718,13.6406 Z" id="Fill-2" fill="#7DBE81"></path>
                    <path d="M48.8946,26.0156 C52.2164,24.064 56.5484,23.5868 60.625,24.146 C70.2672,25.4696 77.4696,30.671 74.5054,50.6086 C70.9266,74.6742 62.1398,101.0954 49.443,99.3524 C47.8562,99.1344 46.0476,98.1976 44.8196,97.2258 L48.8946,26.0156 Z" id="Fill-4" fill="#FF8087"></path>
                    <path d="M27.7852,26.0156 C24.4624,24.064 20.1312,23.5868 16.054,24.146 C6.4124,25.4696 -0.7898,30.671 2.1742,50.6086 C5.7524,74.6742 14.5398,101.0954 27.2368,99.3524 C28.8234,99.1344 30.632,98.1976 31.8602,97.2258 L27.7852,26.0156 Z" id="Fill-5" fill="#DC4655"></path>
                    <path d="M56.0422,47.4804 C56.0422,72.6196 51.2328,100.9 38.407,100.9 C25.5812,100.9 20.771,72.6188 20.771,47.4804 C20.771,26.6554 28.6672,22.3422 38.407,22.3422 C48.146,22.3422 56.0422,26.6546 56.0422,47.4804 Z" id="Fill-6" fill="#E6646E"></path>
                    <path d="M73.1796,28.911 C70.5734,25.436 66.6812,23.4492 60.9304,22.6602 C56.3586,22.0328 52.757,22.443 49.6782,23.9492 C48.2438,22.8938 46.6016,22.1148 44.7226,21.6016 C44.7546,19.0282 44.95,16.3696 45.3086,13.6852 C45.6336,11.2492 47.729,9.4124 50.1812,9.4124 L51.2328,9.4124 C53.8274,9.4124 55.939,7.3016 55.939,4.7062 C55.939,2.1118 53.8274,0 51.232,0 L49.6476,0 C43.418,0 37.746,3.6156 35.1992,9.2118 C33.2624,13.4656 32.2242,17.6274 32.1086,21.5946 C30.218,22.1094 28.5718,22.896 27.129,23.964 C24.0492,22.4468 20.432,22.0304 15.85,22.6602 C10.0992,23.4492 6.207,25.436 3.6008,28.911 C0.1368,33.5312 -0.8156,40.7008 0.6906,50.829 C2.6882,64.2632 5.9656,76.496 9.918,85.2742 C12.2226,90.393 14.746,94.3132 17.418,96.9274 C20.1406,99.5914 23.0336,100.9352 26.0376,100.9352 C26.5024,100.9352 26.9704,100.9032 27.4406,100.8382 C28.811,100.6508 30.0946,100.1954 31.2734,99.4844 C33.4086,101.421 35.7938,102.4 38.4062,102.4 C41.0054,102.4 43.3876,101.4218 45.5218,99.4938 C46.696,100.2 47.975,100.6516 49.3398,100.8382 C49.8102,100.9032 50.2782,100.9352 50.743,100.9352 C53.7468,100.9352 56.6406,99.5914 59.3624,96.9282 C62.0344,94.3132 64.5578,90.393 66.8624,85.2742 C70.8156,76.4968 74.0922,64.264 76.0898,50.829 C77.596,40.7008 76.6438,33.5312 73.1796,28.911 Z M37.9296,10.4546 C39.9914,5.9266 44.5906,3 49.6476,3 L51.2328,3 C52.1734,3 52.939,3.7656 52.939,4.7062 C52.939,5.6468 52.1734,6.4124 51.2328,6.4124 L50.1812,6.4124 C46.232,6.4124 42.8586,9.3688 42.3352,13.2882 C41.9852,15.9054 41.7836,18.5032 41.7312,21.0296 C40.6844,20.9046 39.5782,20.8422 38.4062,20.8422 C37.254,20.8422 36.1648,20.9008 35.1368,21.0196 C35.3328,17.6508 36.2688,14.1032 37.9296,10.4546 Z M73.1226,50.3876 C71.1648,63.557 67.9696,75.5094 64.1266,84.043 C61.0704,90.8296 56.0922,98.7376 49.7484,97.8664 C48.9828,97.7618 48.2718,97.543 47.6,97.2124 C47.6594,97.1344 47.7196,97.061 47.7782,96.9812 C50.0352,93.9336 51.954,89.571 53.4804,84.0148 C56.0992,74.4804 57.5422,61.5062 57.5422,47.4804 C57.5422,42.2898 57.0476,37.8406 56.0718,34.2562 C55.854,33.4562 55.029,32.9852 54.2304,33.2024 C53.4312,33.4204 52.9594,34.2446 53.1766,35.0438 C54.0828,38.3718 54.5414,42.5562 54.5414,47.4804 C54.5414,61.2454 53.1376,73.9376 50.5876,83.2204 C48.5594,90.6016 44.8,99.4 38.4062,99.4 C35.2914,99.4 32.5046,97.3016 30.1234,93.1618 C29.7102,92.4438 28.7938,92.1968 28.075,92.6094 C27.357,93.0226 27.1102,93.9398 27.5234,94.6578 C28.0594,95.5898 28.6188,96.4376 29.2016,97.2024 C28.5234,97.539 27.8054,97.7602 27.0328,97.8664 C20.6844,98.7352 15.7102,90.8296 12.654,84.0422 C8.811,75.5094 5.6164,63.557 3.6578,50.3876 C2.2758,41.093 3.0422,34.6562 6.0008,30.711 C8.0946,27.9188 11.354,26.3046 16.2578,25.632 C19.6742,25.1632 22.421,25.343 24.7368,26.1984 C21.0594,30.4984 19.271,37.461 19.271,47.4804 C19.271,63.5438 21.1976,78.304 24.5562,87.975 C24.771,88.5946 25.3516,88.9836 25.9726,88.9836 C26.136,88.9836 26.3024,88.9562 26.4648,88.9 C27.2476,88.6282 27.6618,87.7734 27.3898,86.9906 C24.1368,77.6234 22.271,63.2226 22.271,47.4804 C22.271,38.154 23.8406,31.8094 27.0696,28.0844 C29.579,25.1898 33.1812,23.8422 38.407,23.8422 C44.4,23.8422 48.211,25.5664 50.7632,29.4336 C51.2196,30.125 52.15,30.3156 52.8414,29.8594 C53.5328,29.4032 53.7234,28.4726 53.2672,27.7812 C52.8922,27.2132 52.4938,26.6828 52.0718,26.1868 C54.3812,25.3398 57.1164,25.1648 60.5226,25.632 C65.4274,26.3054 68.686,27.9196 70.7796,30.711 C73.7382,34.6562 74.5046,41.093 73.1226,50.3876 Z" id="Fill-7" fill="#000000"></path>
                </g>
            </g>
        </g>
    </g>
</svg>