<?xml version="1.0" encoding="UTF-8"?>
<svg width="83px" height="81px" viewBox="0 0 83 81" version="1.1" xmlns="http://www.w3.org/2000/svg" xmlns:xlink="http://www.w3.org/1999/xlink">
    <!-- Generator: sketchtool 64 (101010) - https://sketch.com -->
    <title>7E22044C-2745-4A23-BFD2-F75C8ED89AC6</title>
    <desc>Created with sketchtool.</desc>
    <defs>
        <polygon id="path-1" points="0.009703125 0.00646875 82.8 0.00646875 82.8 80.2074867 0.009703125 80.2074867"></polygon>
    </defs>
    <g id="Page-1" stroke="none" stroke-width="1" fill="none" fill-rule="evenodd">
        <g id="iPhone-11-Copy" transform="translate(-262.000000, -481.000000)">
            <g id="005-cabbage" transform="translate(262.000000, 481.000000)">
                <path d="M78.9945961,38.8074867 C78.9945961,59.5699102 62.1625852,76.4020828 41.4,76.4020828 C20.6374148,76.4020828 3.80540391,59.5699102 3.80540391,38.8074867 C3.80540391,18.0442547 20.6374148,1.21289062 41.4,1.21289062 C62.1625852,1.21289062 78.9945961,18.0442547 78.9945961,38.8074867 Z" id="Fill-1" fill="#CDF5A0"></path>
                <path d="M78.9945961,38.8074867 C78.9945961,32.9760703 77.6660766,27.4554773 75.2970586,22.5300094 C73.7102742,22.3076461 72.0685055,22.1561156 70.3761187,22.0878703 L70.2976852,22.0846359 C69.5156133,22.0524539 68.748743,22.0367672 68.0179359,22.0367672 C65.666707,22.0367672 63.5378414,22.1971922 61.5081094,22.5269367 C51.295732,24.1852008 41.9414344,29.4441328 35.1675211,37.3348758 C28.3190555,45.3121383 24.5471273,55.5036539 24.5471273,66.0312211 C24.5471273,68.2579266 24.7277672,70.477193 25.0638188,72.6755977 C30.0038414,75.0627281 35.545943,76.4020828 41.4,76.4020828 C62.1625852,76.4020828 78.9945961,59.5699102 78.9945961,38.8074867 Z" id="Fill-2" fill="#BEE891"></path>
                <path d="M11.7094078,13.9519617 C10.7347289,13.718925 9.69811172,14.0999344 9.10104609,14.9046469 C4.1477625,21.5857336 1.21289062,29.8523109 1.21289062,38.8074867 C1.21289062,58.403918 15.2426391,74.7160031 33.804232,78.2681555 L40.1036625,38.8074867 C35.2357664,26.9154984 24.4745156,17.00505 11.7094078,13.9519617 Z" id="Fill-3" fill="#AFDC82"></path>
                <path d="M13.5572062,34.1081016 C13.5572062,27.60345 15.0120281,21.4416422 17.6021156,15.9173297 C15.6962602,15.1093828 13.7315391,14.4359859 11.7094078,13.9519617 C10.7347289,13.718925 9.69811172,14.0999344 9.10104609,14.9046469 C4.1477625,21.5857336 1.21289062,29.8523109 1.21289062,38.8074867 C1.21289062,58.403918 15.2426391,74.7160031 33.804232,78.2681555 L34.9299562,71.2175414 C22.1528812,63.7847859 13.5572062,49.9541133 13.5572062,34.1081016 Z" id="Fill-4" fill="#96CD82"></path>
                <path d="M80.3514164,28.9217813 C80.123393,28.0221398 79.4082727,27.3070195 78.5062055,27.0872438 C75.8012977,26.4284016 72.9882,26.0853961 70.2187664,25.9734867 L70.1392008,25.9704141 C67.4632406,25.8617391 64.7746664,25.9362914 62.1308883,26.3651695 C43.0234945,29.4688758 28.436625,46.0461797 28.436625,66.0312211 C28.436625,69.9672938 29.0126672,73.7676844 30.0677203,77.3635008 C35.6072344,78.9889359 41.6330367,79.4771648 47.8952719,78.4740234 C64.8435586,75.7582805 78.3495,62.2521773 81.0665367,45.3040523 C81.9831586,39.5826047 81.6553547,34.0582922 80.3514164,28.9217813 Z" id="Fill-5" fill="#CDF5A0"></path>
                <path d="M28.4574867,66.6009563 C28.5105305,70.3331016 29.063932,73.9426641 30.0677203,77.3635008 C35.6072344,78.9889359 41.6330367,79.4771648 47.8952719,78.4733766 C50.0241375,78.1323117 52.0980187,77.6199867 54.1044633,76.9528969 C44.3216109,76.4210039 35.4177,72.6073523 28.4574867,66.6009563 Z" id="Fill-6" fill="#BEE891"></path>
                <g id="Group-10">
                    <mask id="mask-2" fill="white">
                        <use xlink:href="#path-1"></use>
                    </mask>
                    <g id="Clip-8"></g>
                    <path d="M9.39618281,37.729793 C9.44987344,37.7367469 9.50356406,37.7404664 9.55660781,37.7404664 C10.1554523,37.7404664 10.6766719,37.2963867 10.7575312,36.6862219 C10.8497109,35.9861414 10.9627523,35.2812094 11.0929359,34.5901852 C11.2166508,33.9318281 10.7834063,33.2975672 10.1250492,33.1738523 C9.46620703,33.0499758 8.83259297,33.483382 8.70887813,34.1415773 C8.57044688,34.8756188 8.45045156,35.6248617 8.35245,36.3684445 C8.26463672,37.0323 8.73151875,37.6419797 9.39618281,37.729793 Z" id="Fill-7" fill="#000000" mask="url(#mask-2)"></path>
                    <path d="M79.4543625,55.1600016 C81.6464602,50.0619797 82.8,44.5237594 82.8,38.8074867 C82.8,34.8604172 82.2346313,30.9324305 81.1195805,27.1333336 C81.0034664,26.7372844 80.6932898,26.4271078 80.2970789,26.310832 C79.5163008,26.0821617 78.727275,25.8775875 77.9338828,25.6943602 C72.4139367,10.3145836 57.7683633,0 41.4,0 C30.3746625,0 19.8749109,4.69615078 12.514282,12.8964234 C11.7915609,12.7170773 11.0651203,12.5553586 10.3330195,12.4156336 C9.89265938,12.3310547 9.44227266,12.496493 9.16104375,12.8453203 C6.25592813,16.4485758 3.9925125,20.4713297 2.43338203,24.8023195 C0.818620313,29.2875891 0,33.9994266 0,38.8074867 C0,57.2977617 12.2760703,73.4064047 29.7051469,78.5194664 C29.7121008,78.521407 30.2344523,78.6724523 30.351375,78.7046344 C33.9552773,79.7014688 37.6691484,80.2074867 41.4,80.2074867 C52.4581664,80.2074867 62.8549031,75.9010781 70.6743281,68.0816531 C74.4121336,64.3444945 77.3445797,60.0165773 79.3899984,55.3110469 C79.4145797,55.2617227 79.4367352,55.2117516 79.4543625,55.1600016 Z M75.1290328,25.1466187 C74.4815109,25.0436039 73.832857,24.9546586 73.1833945,24.882532 C72.5182453,24.8086266 71.918107,25.2881227 71.8442016,25.9545656 C71.7702961,26.6203617 72.2504391,27.2198531 72.9162352,27.2937586 C74.9522742,27.5193563 76.9870195,27.9103922 78.9737344,28.4568398 C79.9029703,31.8340125 80.3742187,35.3127445 80.3742187,38.8074867 C80.3742187,44.0796797 79.3325883,49.1916094 77.349593,53.9104008 C76.1973469,54.5422359 72.2124352,56.5915359 67.242818,57.6603352 C70.2042117,51.8699953 71.7803227,45.4170938 71.7803227,38.8074867 C71.7803227,38.1371625 71.2377563,37.5945961 70.567432,37.5945961 C69.8979164,37.5945961 69.3545414,38.1371625 69.3545414,38.8074867 C69.3545414,48.2900273 65.9092852,57.4290773 59.6520633,64.5403359 C58.5232664,65.8232508 57.3173297,67.0235273 56.0450883,68.1372844 C55.0810828,64.7809734 52.6540078,57.0671508 48.9483844,50.2212727 C48.6293133,49.6318078 47.8933313,49.4126789 47.3040281,49.73175 C46.7152102,50.0506594 46.4960813,50.7866414 46.8149906,51.3761062 C50.8100906,58.7563031 53.3432531,67.4473922 53.9938477,69.8144695 C48.7323281,73.8252562 42.5131102,76.4531859 35.9085164,77.3906695 C34.2717609,77.1574711 32.6489133,76.8214195 31.0493531,76.3812211 C30.1201172,73.0040484 29.6495156,69.5251547 29.6495156,66.0305742 C29.6495156,55.8214312 33.5692547,46.1694094 40.6874672,38.8542234 C47.791125,31.5527836 57.3021281,27.3689578 67.4682539,27.0733359 C68.1379313,27.053768 68.6648109,26.4953531 68.645243,25.8256758 C68.625675,25.1561602 68.0729203,24.6286336 67.3975828,24.6482016 C64.6381758,24.7284141 61.9243734,25.0803141 59.2869023,25.6861125 C59.4044719,24.4486406 59.4657633,23.1990398 59.4657633,21.9546141 C59.4657633,16.2066445 58.1902875,10.5382406 55.7575523,5.38345547 C64.4133867,9.10670625 71.4746742,16.1238445 75.1290328,25.1466187 Z M41.4,2.42578125 C45.1927898,2.42578125 48.887093,3.01767187 52.3779539,4.12512187 C55.4284547,9.54205313 57.039982,15.6973922 57.039982,21.9546141 C57.039982,23.4226969 56.9515219,24.8970867 56.7771891,26.3475422 C53.5977984,27.2926266 50.5497234,28.6172648 47.6900508,30.2976844 C43.3969031,22.8023437 36.7664344,16.7372437 28.9400555,13.1661703 C28.3305375,12.8881758 27.6108891,13.1566289 27.3330562,13.7656617 C27.0550617,14.3753414 27.3235148,15.0948281 27.9331945,15.3728227 C35.3305336,18.7487016 41.592607,24.4927898 45.6337969,31.5907875 C43.7203406,32.8725703 41.9034305,34.3215703 40.2029578,35.9293781 C37.60155,30.2237789 33.6937781,25.1276977 28.8307336,21.1188516 C24.7751508,17.7758016 20.1074625,15.236332 15.1313766,13.6413 C21.9811359,6.49527187 31.4631914,2.42578125 41.4,2.42578125 Z M10.5945188,14.9424891 C16.6948734,16.2312258 22.4530312,19.0051875 27.2874516,22.9899375 C32.1048914,26.9615883 35.9230711,32.0657555 38.3640539,37.7783086 C31.1745234,45.4714313 27.2237344,55.4695313 27.2237344,66.0312211 C27.2237344,68.8650188 27.5167688,71.688143 28.0936195,74.461943 C23.0064328,71.1347414 18.7322063,66.6433266 15.6734578,61.3829391 C15.5414953,61.1562094 15.4126055,60.9268922 15.2856562,60.697575 C15.8712398,59.8567992 18.9565102,55.6318969 23.6626875,52.8031125 C24.2363039,52.4575195 24.4221187,51.7128047 24.0771727,51.1385414 C23.7322266,50.5642781 22.9868648,50.378625 22.4126016,50.7234094 C18.3335695,53.1757125 15.4321734,56.4985477 14.0543297,58.2781008 C11.669625,53.1550125 10.4201859,47.5346391 10.4201859,41.8321125 C10.4201859,41.1624352 9.87681094,40.6192219 9.20729531,40.6192219 C8.53697109,40.6192219 7.99440469,41.1624352 7.99440469,41.8321125 C7.99440469,43.8959672 8.14852266,45.9502805 8.45174531,47.977425 C5.70883359,46.5471844 3.28305234,44.358968 2.75617266,43.8687984 C2.53882266,42.2079469 2.42578125,40.5187945 2.42578125,38.8074867 C2.42578125,30.0607664 5.24761172,21.8250773 10.5945188,14.9424891 Z M3.42956953,47.6022375 C4.91285391,48.7399289 6.91218281,50.0747555 8.99625234,50.8903031 C9.91481484,54.9969891 11.4542156,58.9521445 13.5767742,62.6027836 C15.6419227,66.1542891 18.2305547,69.3741094 21.2293055,72.1587445 C12.3025922,66.7513547 5.81556797,57.8959594 3.42956953,47.6022375 Z M68.9591391,66.3659789 C62.3943281,72.9307898 53.9010211,76.8618492 44.7569578,77.6369672 C51.1409672,75.2718305 56.8997719,71.341418 61.4739867,66.1429687 C63.0551109,64.3457883 64.4651367,62.4253781 65.6995359,60.4082602 C69.7057945,59.8031086 73.237732,58.5130781 75.6432984,57.4505859 C73.8763594,60.6856078 71.6381719,63.6867844 68.9591391,66.3659789 Z" id="Fill-9" fill="#000000" mask="url(#mask-2)"></path>
                </g>
            </g>
        </g>
    </g>
</svg>