<?xml version="1.0" encoding="UTF-8"?>
<svg width="46px" height="39px" viewBox="0 0 46 39" version="1.1" xmlns="http://www.w3.org/2000/svg" xmlns:xlink="http://www.w3.org/1999/xlink">
    <!-- Generator: sketchtool 64 (101010) - https://sketch.com -->
    <title>056B0C50-C8E5-487D-A9E1-6F29330DF29D</title>
    <desc>Created with sketchtool.</desc>
    <g id="Page-1" stroke="none" stroke-width="1" fill="none" fill-rule="evenodd">
        <g id="iPhone-11-Copy" transform="translate(-84.000000, -857.000000)">
            <g id="035-carrot" transform="translate(72.000000, 857.000000)">
                <g id="Group-7">
                    <path d="M41.2008,26.2062 C35.0938,28.0718 31.211,33.0804 33.3094,39.9516 C35.4086,46.8218 57.896,102.7132 64.0032,100.8476 C70.1102,98.9828 57.525,40.0656 55.4258,33.1954 C53.3266,26.3242 47.3078,24.3406 41.2008,26.2062 Z" id="Fill-1" fill="#FFAA5F"></path>
                    <path d="M64.0032,100.8476 C64.5422,100.6836 64.9328,100.0664 65.2008,99.0882 C55.0766,80.0476 39.5094,40.4578 37.9946,35.4984 C37.0242,32.3218 37.3438,29.55 38.5594,27.296 C34.0476,29.668 31.5344,34.139 33.3094,39.9516 C35.4086,46.8218 57.896,102.7132 64.0032,100.8476 Z" id="Fill-3" fill="#FF8C5A"></path>
                    <path d="M37.6172,14.0976 C31.1422,11.239 24.257,12.629 21.0422,19.9124 C17.8266,27.1968 -3.7906,90.3704 2.6836,93.229 C9.1578,96.0876 41.2726,37.5468 44.4882,30.2632 C47.704,22.9796 44.0914,16.9562 37.6172,14.0976 Z" id="Fill-4" fill="#FFAA5F"></path>
                    <path d="M2.6836,93.229 C3.2546,93.4812 4.029,93.246 4.9618,92.6204 C10.261,69.3132 25.8758,24.8282 28.1976,19.5696 C29.6844,16.2016 31.9602,14.1086 34.6118,13.0984 C29.1094,11.8204 23.7624,13.7508 21.0422,19.9124 C17.8266,27.1968 -3.7914,90.3704 2.6836,93.229 Z" id="Fill-5" fill="#FF8C5A"></path>
                    <path d="M64.036,68.5102 C61.2812,52.7696 57.4196,36.025 56.3196,32.5196 C54.8296,27.7726 51.4648,24.736 46.982,24.0218 C46.8454,22.6688 46.4812,21.3586 45.8882,20.1124 C44.904,18.046 43.3438,16.25 41.3008,14.8054 L48.839,7.7368 C49.4438,7.1704 49.4742,6.221 48.907,5.6164 C48.3406,5.0124 47.3914,4.982 46.7876,5.5484 L40.243,11.686 L43.9554,3.204 C44.2876,2.4454 43.9422,1.561 43.1828,1.229 C42.4242,0.896 41.5398,1.2422 41.2078,2.0016 L37.4946,10.4828 L37.564,1.5118 C37.571,0.6828 36.9046,0.0062 36.0758,0 L36.064,0 C35.2414,0 34.571,0.664 34.5648,1.4882 L34.4844,11.8218 C32.0376,11.3016 29.6602,11.3734 27.4742,12.0524 C23.9414,13.1492 21.182,15.7664 19.4946,19.6218 C17.8688,23.336 11.6296,41.2476 6.7242,58.1946 C3.9046,67.9336 1.9438,75.8578 0.8954,81.7476 C-0.5992,90.146 -0.2438,93.9946 2.1218,95.0304 C2.461,95.179 2.8296,95.2742 3.2476,95.2742 C5.6656,95.2742 9.739,92.0844 19.279,77.4938 C25.1984,68.4414 31.2242,58.0328 35.2954,50.7844 C38.875,59.5758 44.021,71.475 49.018,81.6258 C52.1516,87.9906 54.8734,92.9414 57.1086,96.3414 C59.8532,100.5148 61.8766,102.4 63.6796,102.4 C63.9468,102.4 64.2086,102.3586 64.4672,102.2774 C67.164,101.4296 68.979,96.7546 64.036,68.5102 Z M63.543,99.329 C62.9164,99.0196 60.7812,97.3414 55.8172,88.257 L58.3016,87.4774 C59.0922,87.229 59.5312,86.3876 59.2836,85.5968 C59.036,84.807 58.1946,84.3664 57.4032,84.6148 L54.3774,85.5648 C53.3938,83.6852 52.3148,81.55 51.1336,79.125 C48.8398,74.4132 46.525,69.3648 44.3632,64.4672 L49.0938,62.9828 C49.8836,62.7344 50.3234,61.893 50.0758,61.1024 C49.8274,60.3124 48.986,59.8718 48.1954,60.1204 L43.1524,61.7032 C40.8618,56.439 38.793,51.4656 37.1718,47.421 C37.8554,46.1868 38.4454,45.1132 38.9204,44.243 C39.318,43.5156 39.05,42.6046 38.3234,42.2078 C37.596,41.8102 36.6852,42.0782 36.2876,42.8046 C35.9532,43.418 35.5586,44.1368 35.1124,44.946 L27.2938,41.5234 C26.5352,41.1914 25.6508,41.5376 25.318,42.296 C24.986,43.0554 25.332,43.9398 26.0906,44.2718 L33.65,47.5812 C30.4218,53.368 25.5704,61.8586 20.4734,70.0382 L15.7218,67.9586 C14.9632,67.6258 14.079,67.9718 13.7468,68.7312 C13.414,69.4898 13.7602,70.3742 14.5188,70.7062 L18.8586,72.6062 C18.375,73.3672 17.8906,74.1226 17.407,74.8696 C7.3156,90.45 4.029,92.0796 3.3446,92.239 C3.0922,91.7868 2.421,89.657 4.1046,80.886 C4.3382,79.671 4.6094,78.3726 4.9124,77.0008 L7.725,78.232 C7.9204,78.318 8.1242,78.3586 8.325,78.3586 C8.9032,78.3586 9.454,78.0226 9.7,77.4594 C10.032,76.7008 9.6868,75.8156 8.9274,75.4836 L5.5976,74.0266 C6.711,69.3578 8.168,63.9376 9.9578,57.814 C10.8344,54.8156 11.743,51.8148 12.6516,48.8882 L17.8282,51.1546 C18.0234,51.2398 18.2274,51.2804 18.4282,51.2804 C19.0062,51.2804 19.557,50.9446 19.8032,50.3812 C20.1352,49.6226 19.7898,48.7382 19.0304,48.4062 L13.554,46.0086 C17.132,34.6836 20.5648,24.9234 21.9718,21.468 L26.4624,23.4336 C26.6586,23.5196 26.8624,23.5594 27.0632,23.5594 C27.6406,23.5594 28.1914,23.2242 28.4382,22.661 C28.7704,21.9024 28.4242,21.0172 27.6656,20.6852 L23.343,18.793 C26.7124,13.7078 32.354,13.7618 36.8368,15.7242 C39.8446,17.0414 42.0376,19.004 43.1796,21.4016 C44.3844,23.932 44.3196,26.8726 42.9914,29.9062 C42.45,31.1446 41.0726,33.8656 39.214,37.371 C38.8258,38.1032 39.1046,39.011 39.8368,39.3992 C40.568,39.7868 41.4766,39.5086 41.8648,38.7766 C42.0578,38.4124 42.2438,38.0586 42.4266,37.7118 L46.8172,36.3124 C47.6062,36.061 48.0422,35.2172 47.7906,34.4274 C47.539,33.6382 46.6954,33.2024 45.9054,33.454 L44.3734,33.9422 C44.996,32.7078 45.4656,31.7352 45.7398,31.1094 C46.3368,29.7454 46.725,28.389 46.9118,27.0562 C50.0618,27.7046 52.3594,29.9204 53.457,33.4172 C54.039,35.271 55.4148,40.9226 56.9938,48.2304 L49.7422,50.5062 C48.9516,50.754 48.5124,51.596 48.7602,52.386 C48.961,53.0274 49.5532,53.4376 50.1914,53.4376 C50.3398,53.4376 50.4914,53.4148 50.6406,53.368 L57.6226,51.1774 C58.6976,56.2828 59.829,61.9922 60.8438,67.686 C61.2516,69.9734 61.611,72.0946 61.9296,74.0656 L57.5656,75.436 C56.7758,75.6844 56.336,76.5258 56.5836,77.3164 C56.7852,77.957 57.3766,78.3672 58.0148,78.3672 C58.1632,78.3672 58.3148,78.3454 58.464,78.2984 L62.3992,77.0632 C65.079,94.7618 63.9688,98.5656 63.543,99.329 Z" id="Fill-6" fill="#000000"></path>
                </g>
                <path d="M36.4774,24.543 L33.5398,23.257 C32.7804,22.925 31.8968,23.271 31.564,24.0296 C31.232,24.789 31.5782,25.6734 32.3368,26.0054 L35.2742,27.2914 C35.4704,27.3774 35.6742,27.4172 35.875,27.4172 C36.4524,27.4172 37.0032,27.0812 37.25,26.5188 C37.582,25.7594 37.236,24.875 36.4774,24.543 Z" id="Fill-10" fill="#000000"></path>
                <path d="M29.6828,32.0688 L23.8086,29.4976 C23.0492,29.1648 22.1648,29.511 21.8328,30.2704 C21.5008,31.029 21.8468,31.9132 22.6054,32.2454 L28.4796,34.8172 C28.6758,34.9032 28.8796,34.943 29.0804,34.943 C29.6586,34.943 30.2086,34.607 30.4554,34.0446 C30.7876,33.2852 30.4422,32.4008 29.6828,32.0688 Z" id="Fill-11" fill="#000000"></path>
            </g>
        </g>
    </g>
</svg>