<?xml version="1.0" encoding="UTF-8"?>
<svg width="78px" height="88px" viewBox="0 0 78 88" version="1.1" xmlns="http://www.w3.org/2000/svg" xmlns:xlink="http://www.w3.org/1999/xlink">
    <!-- Generator: sketchtool 64 (101010) - https://sketch.com -->
    <title>F4E19D68-5669-44D6-9709-7BC37DA42ED0</title>
    <desc>Created with sketchtool.</desc>
    <defs>
        <polygon id="path-1" points="0.161511429 0 77.5692477 0 77.5692477 87.780622 0.161511429 87.780622"></polygon>
    </defs>
    <g id="Page-1" stroke="none" stroke-width="1" fill="none" fill-rule="evenodd">
        <g id="iPhone-11-Copy" transform="translate(-267.000000, -678.000000)">
            <g id="032-chili-pepper" transform="translate(267.000000, 678.000000)">
                <path d="M30.168242,11.8835097 L27.2355316,5.50776053 C25.8613453,2.52186585 22.5716632,0.919107539 19.3738919,1.67745732 L18.1577095,1.9652378 C20.383189,1.43804185 22.6146926,2.81446563 23.1424049,5.03908453 L25.0525651,13.0971103 L30.168242,11.8835097 Z" id="Fill-1" fill="#AFDC82"></path>
                <path d="M35.2672234,15.8024534 C35.4374476,13.0311893 32.8797813,10.892457 30.1783969,11.533939 L25.2293298,12.7098459 C22.7081524,13.3088149 20.9405055,15.5699227 20.9842234,18.1611519 C21.2403343,33.4486297 25.8229631,82.4799188 74.4341134,75.9952192 C75.7430671,75.8212084 76.6279232,74.5692256 76.3227589,73.2843683 C76.0879906,72.2946926 75.2033065,71.6103534 74.186092,71.5881502 C39.8861691,70.8492497 35.043987,39.2885771 35.0883933,21.7164113 C35.0951059,18.9671782 35.2672234,15.8024534 35.2672234,15.8024534 Z" id="Fill-2" fill="#E6646E"></path>
                <g id="Group-7" transform="translate(6.196231, 12.392461)">
                    <path d="M20.137061,1.41463387 C20.1229473,0.933909645 20.1828442,0.472634701 20.2742386,0.0228916297 L19.0330992,0.317384701 C16.5119218,0.915665188 14.7442749,3.17746147 14.7879928,5.76869069 C15.0373911,20.6668387 19.4028076,67.6058672 64.620661,63.9819329 C25.1775225,62.2843379 20.5800915,16.4485826 20.137061,1.41463387 Z" id="Fill-3" fill="#DC4655"></path>
                    <path d="M16.7976369,6.47385615 C17.6029748,3.81687805 15.6089933,1.14630266 12.8329099,1.14630266 L7.74597672,1.14630266 C5.15405904,1.14630266 2.91188415,2.93666907 2.3552561,5.46868986 C-0.927197062,20.4019498 -7.79847256,69.1650798 40.9956386,74.0885014 C42.308551,74.2203434 43.4589845,73.2077761 43.4589845,71.8872905 C43.4589845,70.8700759 42.7570892,69.9993334 41.7720607,69.7432226 C8.57162445,61.0982761 11.1526987,29.2727145 15.2559803,12.1867808 C15.8986671,9.51293514 16.7976369,6.47385615 16.7976369,6.47385615 Z" id="Fill-5" fill="#E6646E"></path>
                    <path d="M8.5662888,2.46885366 C8.66370732,1.99742378 8.82842378,1.56179435 9.02136752,1.14630266 L7.74597672,1.14630266 C5.15405904,1.14630266 2.91188415,2.93666907 2.3552561,5.46868986 C-0.844408537,20.0220865 -7.44270565,66.69898 37.3885718,73.6218908 C-0.594321785,62.8552517 5.52393958,17.1983265 8.5662888,2.46885366 Z" id="Fill-6" fill="#DC4655"></path>
                </g>
                <path d="M19.0291405,13.5387639 L17.6454878,6.65750554 C16.9966048,3.43494928 14.1668207,1.11669845 10.8790319,1.11669845 L9.63049141,1.11669845 C11.9163841,1.11669845 13.7707783,2.9704041 13.7707783,5.25767378 L13.7707783,13.5387639 L19.0291405,13.5387639 Z" id="Fill-8" fill="#AFDC82"></path>
                <g id="Group-12">
                    <mask id="mask-2" fill="white">
                        <use xlink:href="#path-1"></use>
                    </mask>
                    <g id="Clip-10"></g>
                    <path d="M15.9578756,55.9798453 C15.7668251,55.2948176 15.0568404,54.894128 14.3711242,55.0856948 C13.685408,55.2772616 13.2854069,55.9879349 13.4769737,56.6731347 C13.8823104,58.1280441 14.348921,59.5554146 14.8632081,60.9147988 C15.0582173,61.4304629 15.548408,61.7478476 16.0687192,61.7478476 C16.2200105,61.7478476 16.3740557,61.7216857 16.5239701,61.6645427 C17.1895485,61.4123905 17.5250055,60.6693592 17.2735419,60.0037808 C16.7867935,58.7149648 16.343763,57.3616048 15.9578756,55.9798453 Z" id="Fill-9" fill="#000000" mask="url(#mask-2)"></path>
                    <path d="M77.4757741,72.9623365 C77.107959,71.4146558 75.7256832,70.3100055 74.11277,70.2757542 C59.5917314,69.9618118 49.0595164,63.9228966 42.8095851,52.3271674 C37.4126682,42.3133703 36.2784138,30.1386377 36.2777253,21.689561 C36.2777253,20.9775108 35.7009595,20.4012614 34.9895978,20.4012614 C34.2775477,20.4012614 33.7014703,20.9781993 33.7014703,21.689561 C33.7021588,30.4351962 34.8894254,43.0622536 40.5417647,53.5493739 C47.2638143,66.0218697 58.5400934,72.5158636 74.0575202,72.8514928 C74.4972805,72.8607871 74.8718082,73.1513215 74.9678498,73.5573467 C75.0499498,73.8995164 74.9175915,74.1604465 74.8315327,74.2855759 C74.6761106,74.5113941 74.4380721,74.6566613 74.1625119,74.6929781 C60.5907015,76.5027938 49.4259545,74.0112206 40.9794595,67.2859008 C35.1119734,62.6144593 30.5071414,55.8803614 27.2933631,47.2684615 C24.9200346,40.9102683 23.3413728,33.6778902 22.600579,25.7711558 C22.600579,25.768574 22.5998905,25.7658201 22.5992021,25.7632384 C22.6683933,25.4646145 22.7375845,25.1694329 22.8069479,24.8804476 C23.4220959,22.3188226 24.2893961,19.3719986 24.3291552,19.2368864 C24.790258,17.7112367 24.5670216,16.1110601 23.7246785,14.7819687 C24.2188279,14.3785252 24.8017899,14.0847206 25.4296746,13.9354947 L25.58699,13.8984895 C25.4875061,19.0881768 25.7625499,34.9842622 32.0085225,49.5772458 C32.2176452,50.0660596 32.6935502,50.3591757 33.1932073,50.3591757 C33.362571,50.3591757 33.534,50.3256128 33.7000934,50.2548725 C34.3536236,49.9751815 34.657411,49.2175202 34.3770316,48.5633016 C28.1009385,33.8997497 28.0806286,17.370444 28.1849318,13.2812761 L30.3518914,12.7669889 C30.3525798,12.7669889 30.3532683,12.7669889 30.3537846,12.7663004 L30.3787417,12.7609648 C31.2689335,12.5497766 32.1799515,12.7649235 32.8784044,13.3525327 C33.5730707,13.9361832 33.9388204,14.7907467 33.8835707,15.6962569 C33.8398528,16.4062417 34.3804739,17.0181195 35.0911472,17.0611488 C35.1179975,17.0625258 35.1443315,17.0639027 35.1711818,17.0632142 C35.8469152,17.0632142 36.4135261,16.5373952 36.4560391,15.8542608 C36.5615471,14.1256846 35.8629221,12.4953875 34.5377894,11.3805823 C33.4882167,10.4977916 32.1887295,10.0587198 30.8555072,10.1091502 L28.3160854,4.59278381 C26.6895748,1.06299778 22.7659839,-0.847850887 18.9854227,0.0504304324 L17.2399789,0.465233647 C16.5938498,0.617901885 15.9625227,0.83304878 15.3575297,1.10396175 C14.0800734,0.293116131 12.5733567,-0.172117517 10.9805812,-0.172117517 L9.18677245,-0.172117517 C5.63891408,-0.172117517 2.34578963,1.59002162 0.378486419,4.54235338 C-0.0168675166,5.13460976 0.143201774,5.93461197 0.735458149,6.32927744 C1.32788664,6.72325443 2.12788886,6.56404573 2.52255432,5.97161724 C4.01119873,3.73822034 6.5027719,2.40499806 9.18677245,2.40499806 L9.73135227,2.40499806 C11.30399,2.40499806 12.5833395,3.68434756 12.5833395,5.25767378 L12.5833395,12.403821 C10.0198212,12.9539085 7.97799113,14.931883 7.39434063,17.5849024 C5.15681292,27.7641045 1.31514994,53.3214903 13.938765,70.7477004 C21.0244989,80.5287946 32.2028431,86.253079 47.1636419,87.7623775 C47.2818866,87.7745978 47.4008198,87.780622 47.5199252,87.780622 C48.3932494,87.780622 49.2436821,87.4572131 49.895319,86.8675385 C50.62613,86.2072957 51.0448919,85.2640917 51.0448919,84.2797517 C51.0448919,82.6904185 49.9557323,81.2952339 48.3946264,80.8892087 C34.3334859,77.2275807 25.4761463,68.9182633 22.0673589,56.1896566 C20.0812949,48.7738013 20.21176,40.8859997 21.1065989,34.0207483 C21.9961023,39.083413 23.2560025,43.821464 24.8797591,48.1693246 C28.2596308,57.2251156 33.1360643,64.334946 39.3739473,69.301569 C46.5113165,74.9833404 55.4030795,77.8429008 65.8886508,77.8429008 C68.6506206,77.8429008 71.5242946,77.6444493 74.5033046,77.2472021 C75.4957342,77.1146716 76.3898847,76.5673379 76.9546023,75.745821 C77.5127794,74.9342869 77.7022808,73.9198262 77.4757741,72.9623365 Z M15.1604551,12.2499479 L15.1604551,5.25767378 C15.1604551,4.87987583 15.1213844,4.5120607 15.047546,4.15629379 C15.7582192,4.90259534 16.2697525,5.84734839 16.4830061,6.911551 L17.5566752,12.2499479 L15.1604551,12.2499479 Z M20.2062522,12.3568329 L19.0095191,6.40328797 C18.7587439,5.15818986 18.2289662,4.02600083 17.4941965,3.06386391 C17.6071056,3.03150582 17.7200147,2.99931984 17.8343007,2.97178104 L18.3628736,2.84665161 L18.3640784,2.84665161 C19.1057328,2.66988692 19.8707952,2.79346729 20.5189897,3.19364052 C21.1677007,3.59295316 21.622263,4.22083786 21.7978229,4.96249224 L23.4510116,11.920515 C22.8747622,12.198829 22.3403373,12.5551123 21.8635718,12.9800704 C21.3532433,12.6829956 20.7938614,12.4731843 20.2062522,12.3568329 Z M25.9742544,5.67110006 L28.2522298,10.6168969 L25.9205538,11.1707711 L24.3048866,4.36679351 C24.2181394,4.0031092 24.0964523,3.65353853 23.9418908,3.32204019 C24.8057486,3.88469235 25.521069,4.68486669 25.9742544,5.67110006 Z M28.4215934,72.7983085 C33.2482849,77.7399745 39.7489914,81.3005696 47.7450549,83.3828473 C48.17139,83.4931746 48.4686369,83.8621946 48.4686369,84.2797517 C48.4686369,84.6320762 48.2789634,84.8553126 48.1674313,84.956862 C47.9636441,85.1403392 47.6994437,85.2270865 47.4223345,85.1988592 C33.2240164,83.766153 22.6609922,78.3955701 16.0256899,69.2363365 C4.01378049,52.6545349 7.74804213,27.9778744 9.91087084,18.1382603 C10.3397877,16.188513 12.0387597,14.8270635 14.0437567,14.8270635 L14.2064077,14.8270635 C12.9095022,19.8534113 9.50484562,35.3828864 12.2101887,51.0240657 C12.3184507,51.6507456 12.8630305,52.0930876 13.4783506,52.0930876 C13.5508121,52.0930876 13.6248226,52.0870635 13.6995216,52.0743268 C14.4007284,51.9526397 14.8706092,51.2863728 14.7496106,50.5849939 C12.0306702,34.8679108 15.8301644,18.7816355 16.8756062,14.8270635 L19.1318947,14.8270635 C20.046355,14.8270635 20.8819856,15.2478908 21.4258769,15.9807672 C21.9658096,16.7088243 22.1251904,17.6244895 21.8616785,18.4924781 C21.86099,18.4959205 21.8603016,18.4986743 21.8589246,18.5012561 C21.8219193,18.6263855 20.9432594,21.6028137 20.301089,24.2780363 C18.263906,32.7629135 16.4842109,45.3011583 19.5783675,56.856612 C21.2646028,63.1537034 24.2396541,68.5175737 28.4215934,72.7983085 Z" id="Fill-11" fill="#000000" mask="url(#mask-2)"></path>
                </g>
                <path d="M36.874801,58.5879421 C37.1236829,58.9562736 37.5297081,59.1547251 37.9431344,59.1547251 C38.1913279,59.1547251 38.4421031,59.0827799 38.6632741,58.9333819 C39.2534651,58.5347578 39.4075103,57.7340671 39.0088861,57.1443925 C38.2376275,56.002737 37.4940798,54.7884479 36.8002741,53.5331948 C36.4553506,52.9106458 35.6713553,52.6855161 35.0488063,53.0302675 C34.4262572,53.3745025 34.2002669,54.1591863 34.5451904,54.7810468 C35.2760014,56.1029094 36.0599967,57.3831195 36.874801,58.5879421 Z" id="Fill-13" fill="#000000"></path>
            </g>
        </g>
    </g>
</svg>