<?xml version="1.0" encoding="UTF-8"?>
<svg width="32px" height="26px" viewBox="0 0 32 26" version="1.1" xmlns="http://www.w3.org/2000/svg" xmlns:xlink="http://www.w3.org/1999/xlink">
    <!-- Generator: Sketch 64 (93537) - https://sketch.com -->
    <title>Group 14</title>
    <desc>Created with Sketch.</desc>
    <defs>
        <linearGradient x1="50%" y1="3.77334932%" x2="50%" y2="99.2715372%" id="linearGradient-1">
            <stop stop-color="#FFC4D9" offset="0%"></stop>
            <stop stop-color="#FFB4E4" offset="100%"></stop>
        </linearGradient>
        <linearGradient x1="50%" y1="0%" x2="50%" y2="100%" id="linearGradient-2">
            <stop stop-color="#FFDDC6" offset="0%"></stop>
            <stop stop-color="#FFB9E0" offset="100%"></stop>
        </linearGradient>
        <linearGradient x1="50%" y1="0%" x2="50%" y2="100%" id="linearGradient-3">
            <stop stop-color="#FFDDC6" offset="0%"></stop>
            <stop stop-color="#FFB9E0" offset="100%"></stop>
        </linearGradient>
        <linearGradient x1="50%" y1="3.77334932%" x2="50%" y2="99.2715372%" id="linearGradient-4">
            <stop stop-color="#FFC4D9" offset="0%"></stop>
            <stop stop-color="#FFB4E4" offset="100%"></stop>
        </linearGradient>
    </defs>
    <g id="Page-2" stroke="none" stroke-width="1" fill="none" fill-rule="evenodd">
        <g id="iPhone-11-Copy" transform="translate(-29.000000, -439.000000)">
            <g id="Group-14" transform="translate(29.000000, 439.000000)">
                <path d="M31.2975925,19.6846823 C31.1912792,19.2703427 30.9431935,18.9999677 30.6678906,18.9999677 L0.682107037,18.9999677 C0.406804126,18.9999677 0.158718443,19.2703427 0.0524051348,19.6846823 C-0.0539081734,20.0990219 0.00467914846,20.5754761 0.199608177,20.8923851 L1.72754253,23.3786305 C2.62986396,24.843309 3.82652758,25.6499677 5.10094558,25.6499677 L26.2463687,25.6499677 C27.5207867,25.6499677 28.7188559,24.8434129 29.622519,23.3786305 L31.1504534,20.8923851 C31.3453185,20.5754761 31.4039058,20.0990219 31.2975925,19.6846823 Z" id="Path" fill="url(#linearGradient-1)" opacity="0.41124907"></path>
                <g id="Group-13" transform="translate(2.850000, 0.000000)">
                    <g id="Group-5">
                        <path d="M17.6570499,4.37212705 C18.5896625,3.20663013 18.5896625,1.38157217 17.6570499,0.216075251 C17.4585793,-0.031703749 17.0995471,-0.073000249 16.8506389,0.126599501 C16.6028599,0.32507005 16.5626926,0.685231452 16.7611632,0.933010452 C17.3519505,1.6705939 17.3519505,2.91755463 16.760034,3.65745025 C15.8262921,4.82294717 15.8262921,6.64800513 16.760034,7.81350205 C16.8735993,7.95572763 17.0399145,8.02917947 17.2085419,8.02917947 C17.3335606,8.02917947 17.4608915,7.98788297 17.5664449,7.9029778 C17.8142239,7.70450725 17.8543912,7.34316288 17.6559207,7.09656685 C17.0640042,6.35892963 17.0640042,5.11202267 17.6570499,4.37212705 Z" id="Path" fill="#CB5A91"></path>
                        <path d="M14.2111043,4.37212705 C15.1448461,3.20663013 15.1448461,1.38157217 14.2111043,0.216075251 C14.0138167,-0.031703749 13.6524723,-0.0718710479 13.4046933,0.126599501 C13.1569143,0.32507005 13.116747,0.686414425 13.3152176,0.933010452 C13.9071341,1.6705939 13.9071341,2.91755463 13.3140884,3.65745025 C12.3814758,4.82294717 12.3814758,6.64800513 13.3140884,7.81350205 C13.4276538,7.95572763 13.593969,8.02917947 13.7625963,8.02917947 C13.887615,8.02917947 14.0138167,7.98788297 14.1204993,7.9029778 C14.3682783,7.70450725 14.4084456,7.34434585 14.2099751,7.09656685 C13.6191878,6.35892963 13.6191878,5.11202267 14.2111043,4.37212705 Z" id="Path" fill="#CB5A91"></path>
                        <path d="M10.7742999,4.37325625 C11.7069125,3.20775933 11.7069125,1.38270138 10.7742999,0.217204452 C10.5770123,-0.0305745479 10.2167971,-0.0718710479 9.96788892,0.127728702 C9.72123912,0.325016278 9.68112559,0.686360653 9.87841317,0.933010452 C10.4692005,1.6705939 10.4692005,2.91755463 9.87728396,3.65745025 C8.94354214,4.82294717 8.94354214,6.64800513 9.87728396,7.81350205 C9.99084934,7.95572763 10.1571645,8.02917947 10.3257919,8.02917947 C10.4508106,8.02917947 10.5781415,7.98788297 10.6836949,7.90416077 C10.9314739,7.70569022 10.9716412,7.34434585 10.7731707,7.09774982 C10.1812542,6.35892963 10.1812542,5.11315188 10.7742999,4.37325625 Z" id="Path" fill="#CB5A91"></path>
                        <path d="M5.70320024,9.49996766 L20.8293154,9.49996766 C21.8786486,9.49998184 22.7293012,10.3506345 22.7293012,11.3999677 C22.7293012,11.4349341 22.7283359,11.4698938 22.7264065,11.5048069 C22.6452941,12.9725543 22.2960367,14.5209412 21.6786342,16.1499677 C20.7727148,18.5402505 18.5519231,20.6888464 15.016259,22.5957554 L10.8202995,22.3676684 C8.22983163,20.7217747 6.34882987,18.8088794 5.17729421,16.6289825 C4.3072437,15.0100643 3.84940789,13.2828006 3.80378678,11.4471914 C3.77769799,10.3981654 4.60696652,9.52662606 5.65599295,9.5005542 C5.67172568,9.50016318 5.68746266,9.49996766 5.70320024,9.49996766 Z" id="Rectangle" stroke="#A7006B" stroke-width="0.95" fill="url(#linearGradient-2)"></path>
                        <path d="M4.27677044,7.59996766 L22.311653,7.59996766 C23.6233252,7.599975 24.6866456,8.66329543 24.6866456,9.97496766 C24.6866456,10.0087983 24.6859228,10.0426251 24.6844776,10.0764249 C24.6007398,12.0348356 24.1782018,14.103792 23.4168635,16.2832941 C22.3265931,19.404438 19.6538794,22.2099958 15.3987221,24.6999677 L10.3489019,24.4021401 C7.23128434,22.2529923 4.96750638,19.7552037 3.55756797,16.9087742 C2.49137855,14.7563163 1.93953903,12.45718 1.90204939,10.0113655 C1.88194833,8.6998444 2.92884947,7.62034971 4.24037056,7.60024661 C4.25250296,7.60006064 4.26463661,7.59996766 4.27677044,7.59996766 Z" id="Rectangle" fill="url(#linearGradient-3)" opacity="0.41124907"></path>
                        <path d="M26.3407682,21.000851 C26.2512924,20.7863566 26.0424978,20.6463894 25.8107964,20.6463894 L0.574064367,20.6463894 C0.342363041,20.6463894 0.133568367,20.7863566 0.0440926172,21.000851 C-0.0453831328,21.2153455 0.00392531836,21.4619953 0.167982117,21.6260521 L1.45392717,22.9131263 C2.21334184,23.671358 3.22048174,24.0889474 4.29306154,24.0889474 L22.0895409,24.0889474 C23.1621207,24.0889474 24.1704435,23.6714118 24.9309874,22.9131263 L26.2169325,21.6260521 C26.3809355,21.4619953 26.4302439,21.2153455 26.3407682,21.000851 Z" id="Path" stroke="#CB5793" stroke-width="0.95" fill="url(#linearGradient-4)"></path>
                    </g>
                    <path d="M27.3711028,11.8846487 C25.8259254,10.8912205 23.3573303,11.9695538 23.0808374,12.0945725 C22.7928911,12.226474 22.664431,12.5660409 22.7963324,12.8551164 C22.9282339,13.1441919 23.2666716,13.2715228 23.5568763,13.1396213 C24.1098085,12.888401 25.8832458,12.2930431 26.7504723,12.851675 C27.1416599,13.1028954 27.3331939,13.5904415 27.3331939,14.338349 C27.3331939,16.6348754 22.7011031,18.0229325 20.9127173,18.3647578 L20.5066351,18.4450386 C20.1957821,18.5058542 19.9938702,18.8075122 20.0546858,19.1184189 C20.1086186,19.3914168 20.3483318,19.5806924 20.6167591,19.5806924 C20.653485,19.5806924 20.6901572,19.577251 20.7280123,19.569239 L21.1306532,19.4900874 C21.431182,19.4327133 28.480301,18.0504635 28.480301,14.338349 C28.480301,13.1843592 28.1064278,12.3595584 27.3711028,11.8846487 Z" id="Path" fill="#CB5A91"></path>
                </g>
            </g>
        </g>
    </g>
</svg>