<?xml version="1.0" encoding="UTF-8"?>
<svg width="72px" height="128px" viewBox="0 0 72 128" version="1.1" xmlns="http://www.w3.org/2000/svg" xmlns:xlink="http://www.w3.org/1999/xlink">
    <!-- Generator: sketchtool 64 (101010) - https://sketch.com -->
    <title>3FDBEC26-FF68-46FB-A381-750CCE183BBD</title>
    <desc>Created with sketchtool.</desc>
    <defs>
        <polygon id="path-1" points="0.19425 0 71.9415 0 71.9415 127.735 0.19425 127.735"></polygon>
    </defs>
    <g id="Page-1" stroke="none" stroke-width="1" fill="none" fill-rule="evenodd">
        <g id="iPhone-11-Copy" transform="translate(-71.000000, -444.000000)">
            <g id="010-garlic" transform="translate(71.000000, 444.000000)">
                <path d="M33.128,4.915 C32.84575,3.96475 31.459,4.09775 31.36125,5.084 C30.34775,15.291 30.32325,26.9745 31.502,39.3165 C31.78625,42.297 32.61725,47.9755 33.0185,50.84275 L39.46575,38.55675 C38.288,26.21475 36.05475,14.746 33.128,4.915 Z" id="Fill-1" fill="#BEE891"></path>
                <path d="M39.1925,57.667 C40.0625,52.86725 41.0185,46.377 41.547,41.21375 C42.8085,28.878 42.86325,17.19625 41.92,6.9815 C41.829,5.995 40.44325,5.8525 40.15325,6.80075 C37.16125,16.61225 34.8495,28.0645 33.588,40.3985 C33.28225,43.377 32.9845,49.1085 32.8175,51.999 L39.1925,57.667 Z" id="Fill-2" fill="#CDF5A0"></path>
                <path d="M41.98625,60.332 C40.88,60.167 40.085,59.17875 40.254,58.07325 C36.98825,50.84075 32.8135,48.703 30.295,48.09075 C29.40425,47.874 28.704,48.8515 29.1415,49.65725 C30.9345,52.958 31.628,56.13175 31.8975,58.09475 C32.04875,59.19525 31.25975,60.166 30.16125,60.33 C14.20125,62.71575 2.0665,74.579 2.0665,88.876 C2.0665,100.82725 10.54875,111.07225 22.65525,115.50575 C25.04875,116.38175 27.01375,117.995 28.3165,120.03325 C29.0255,121.1425 30.1885,121.878 31.50575,121.878 L40.63,121.878 C41.94725,121.878 43.11125,121.1425 43.81925,120.03325 C45.123,117.995 47.088,116.38175 49.4805,115.50575 C61.587,111.07225 70.07025,100.82725 70.07025,88.876 C70.07025,74.583 57.9405,62.72275 41.98625,60.332 Z" id="Fill-3" fill="#FFAA5F"></path>
                <path d="M41.98625,60.332 C40.88,60.167 40.085,59.17875 40.254,58.07325 C38.94925,55.1835 37.5,53.11725 36.06825,51.626 L36.06825,121.878 L40.63,121.878 C41.94725,121.878 43.11125,121.1435 43.81925,120.03425 C45.122,117.995 47.088,116.38275 49.4805,115.50675 C61.587,111.07225 70.07025,100.828 70.07025,88.876 C70.07025,74.583 57.9405,62.72275 41.98625,60.332 Z" id="Fill-4" fill="#FFC369"></path>
                <path d="M45.294,61.005 C44.169,60.7345 40.82125,59.86225 40.50575,58.749 C38.8175,52.291 32.5235,48.63 30.28625,48.08875 C29.3985,47.873 28.6865,48.82125 29.125,49.624 C30.9335,52.94325 31.63,56.13775 31.8995,58.1065 C32.04875,59.20025 31.2675,60.166 30.17475,60.328 C14.208,62.71 2.0665,74.57525 2.0665,88.876 C2.0665,100.82725 10.54875,111.07225 22.65525,115.50575 C25.04875,116.38275 27.01375,117.995 28.3165,120.03425 C29.0255,121.1425 30.1885,121.878 31.50575,121.878 L40.63075,121.878 C41.94725,121.878 43.11125,121.1425 43.82025,120.03425 C45.123,117.995 47.088,116.38275 49.4815,115.50575 C61.588,111.07225 70.07125,100.82725 70.07125,88.876 C70.07025,75.59275 59.583,64.4345 45.294,61.005 Z" id="Fill-5" fill="#FFAA5F"></path>
                <path d="M30.7655,60.125 C30.583,60.212 30.3965,60.295 30.1855,60.32625 C14.213,62.704 2.0665,74.57225 2.0665,88.876 C2.0665,100.82725 10.54875,111.07225 22.65525,115.50575 C23.542,115.83 24.34575,116.28525 25.1025,116.796 L36.06825,113.1095 L36.06825,60.125 L30.7655,60.125 Z" id="Fill-6" fill="#FF8C5A"></path>
                <path d="M36.06825,60.75575 L36.06825,121.51175 C49.32325,121.51175 60.06925,106.51075 60.06925,89.751 C60.06925,72.99225 49.32325,60.75575 36.06825,60.75575 Z" id="Fill-7" fill="#FFD164"></path>
                <path d="M36.06825,59.40525 L36.06825,120.09675 C22.8125,120.09675 12.0665,106.51075 12.0665,89.751 C12.0665,72.99225 22.8115,59.40525 36.06825,59.40525 Z" id="Fill-8" fill="#FFAA5F"></path>
                <g id="Group-12">
                    <mask id="mask-2" fill="white">
                        <use xlink:href="#path-1"></use>
                    </mask>
                    <g id="Clip-10"></g>
                    <path d="M46.06825,89.751 C46.06825,106.51075 41.59175,120.09775 36.06825,120.09775 C30.545,120.09775 26.0675,106.51075 26.0675,89.751 C26.0675,72.99225 30.545,59.40525 36.06825,59.40525 C41.97375,59.40525 46.06825,72.99225 46.06825,89.751 Z" id="Fill-9" fill="#FFC369" mask="url(#mask-2)"></path>
                    <path d="M42.80175,58.5675 C42.1405,58.49425 42.1035,58.3175 42.123,58.22175 C42.38875,56.50775 43.15125,53.4375 45.3915,51.19825 C46.122,50.46675 46.122,49.28125 45.3915,48.55075 C44.66025,47.82025 43.4755,47.82025 42.745,48.55075 C42.3915,48.90425 42.0655,49.2715 41.76375,49.6505 C42.211,46.6405 42.59575,43.59075 42.90825,40.52925 C44.3125,26.80375 44.28125,13.3565 42.81825,1.63975 C42.71,0.7745 42.0195,0.09875 41.15125,0.00975 C40.28225,-0.079 39.47075,0.4425 39.1895,1.2675 C38.05175,4.61225 37.00975,8.13675 36.0675,11.797 C35.123,8.128 34.08,4.6035 32.94425,1.2675 C32.663,0.4425 31.8505,-0.079 30.9825,0.00975 C30.11525,0.09875 29.42375,0.7735 29.3155,1.63975 C27.8525,13.3565 27.82125,26.80375 29.2255,40.52925 C29.416,42.38775 29.63475,44.254 29.876,46.1055 C28.70125,45.921 27.93175,46.005 27.83,46.0175 C27.1875,46.1005 26.63275,46.50875 26.36425,47.09775 C26.09675,47.6875 26.1505,48.373 26.51075,48.912 C28.96375,52.59275 29.77725,56.40325 30.044,58.34775 C30.05375,58.42 29.955,58.46875 29.88575,58.4795 C12.68075,61.05075 0.19425,73.835 0.19425,88.876 C0.19425,101.2665 8.75775,112.40925 22.01275,117.26275 C23.96,117.9765 25.63775,119.31825 26.73925,121.042 C27.73525,122.6015 29.32325,123.581 31.05075,123.7275 L30.3935,125.042 C29.93175,125.96575 30.30675,127.08975 31.2305,127.55275 C31.5,127.6875 31.78525,127.75 32.0665,127.75 C32.752,127.75 33.413,127.37 33.74125,126.71575 L35.22375,123.749 L36.91125,123.749 L38.3945,126.71575 C38.72175,127.371 39.38275,127.75 40.06925,127.75 C40.3505,127.75 40.63575,127.6865 40.90525,127.55275 C41.829,127.08975 42.204,125.96575 41.74125,125.042 L41.085,123.7275 C42.8115,123.581 44.3995,122.6015 45.3965,121.042 C46.498,119.31825 48.17575,117.9765 50.123,117.26275 C63.377,112.40925 71.9415,101.2665 71.9415,88.876 C71.9415,73.998 59.71875,61.32725 42.80175,58.5675 Z M34.94925,39.71475 C35.954,29.8945 37.65925,20.378 39.954,11.71 C40.44625,20.664 40.1895,30.328 39.1845,40.1485 C38.82025,43.713 38.3585,47.25875 37.8095,50.74225 C36.622,49.42475 35.42475,48.46775 34.292,47.7745 C34.455,45.1085 34.67375,42.40125 34.94925,39.71475 Z M32.17875,11.709 C32.8965,14.418 33.55675,17.21675 34.15725,20.087 C33.42,23.6875 32.77625,27.38275 32.2345,31.1475 C31.8585,24.45025 31.83875,17.90925 32.17875,11.709 Z M3.9375,88.876 C3.9375,79.52725 9.55275,71.16025 18.30075,66.2675 C17.2345,67.5205 16.249,68.88275 15.36725,70.34875 C11.9835,75.96775 10.19425,82.671 10.19425,89.7315 C10.19425,97.205 12.287,104.338 15.9385,109.996 C8.46675,104.92675 3.9375,97.213 3.9375,88.876 Z M56.19725,109.995 C59.84875,104.338 61.9405,97.206 61.9405,89.7315 C61.9405,86.50575 61.5615,83.32125 60.8135,80.2665 C60.56825,79.2655 59.583,78.583 58.57625,78.80375 C57.544,79.03025 56.90725,80.0615 57.15925,81.081 C57.84875,83.86725 58.19825,86.77825 58.19825,89.7315 C58.19825,100.084 53.8175,109.6465 46.7655,114.6895 C46.711,114.7275 46.66025,114.7685 46.61225,114.8115 C44.8515,115.86025 43.34175,117.30575 42.24325,119.02625 C41.8505,119.6405 41.248,120.00675 40.63,120.00675 L31.50575,120.00675 C30.88875,120.00675 30.28625,119.6405 29.8935,119.02625 C28.792,117.30175 27.27825,115.8545 25.51475,114.80575 C25.46475,114.76075 25.413,114.71975 25.3575,114.67975 C18.3135,109.63475 13.9385,100.07525 13.9385,89.7315 C13.9385,77.583 20.00975,66.71975 28.84375,62.7695 C25.44825,68.544 23.32125,78.55475 23.32125,89.7315 C23.32125,96.86025 24.165,103.585 25.75975,109.17575 C25.995,109.997 26.74425,110.53325 27.5595,110.53325 C27.77625,110.53325 28,110.495 28.21775,110.413 C29.1405,110.06925 29.61125,109.03625 29.34175,108.08875 C27.873,102.91125 27.0645,96.3955 27.0645,89.7315 C27.0645,77.02925 30.0625,65.373 34.19625,61.997 C34.8085,61.497 35.0205,60.69825 34.8135,59.9345 C34.57225,59.04 33.917,58.541 33.42475,55.959 C33.122,54.36325 32.55275,52.5245 31.6895,50.58975 C33.3165,51.42375 35.3105,53.05075 37.1865,56.21 C37.7735,57.19625 38.1905,58.2705 38.497,59.376 C38.62,59.81925 38.82325,60.24025 39.1055,60.623 C39.747,61.49425 40.753,62.07625 41.84675,62.20125 C41.86525,62.205 41.88375,62.209 41.90225,62.21375 C46.90525,63.9805 51.293,67.98525 54.2705,73.5215 C54.6085,74.1495 55.253,74.50575 55.92,74.50575 C56.24325,74.50575 56.57325,74.422 56.874,74.24325 C57.752,73.7245 58.01075,72.56825 57.5255,71.672 C56.458,69.70025 55.2265,67.8945 53.86125,66.28225 C62.59575,71.17675 68.19925,79.537 68.19925,88.876 C68.19825,97.213 63.669,104.92675 56.19725,109.995 Z" id="Fill-11" fill="#000000" mask="url(#mask-2)"></path>
                </g>
                <path d="M46.65625,82.51075 C45.625,82.57625 44.84175,83.46575 44.90825,84.497 C45.0175,86.213 45.07225,87.97375 45.07225,89.7315 C45.07225,94.8505 44.6005,99.88875 43.706,104.30075 C43.502,105.3135 44.15625,106.30075 45.169,106.50675 C45.295,106.53225 45.42,106.544 45.543,106.544 C46.415,106.544 47.19525,105.93075 47.375,105.044 C48.3165,100.3905 48.8145,95.09575 48.8145,89.7315 C48.8145,87.8945 48.75675,86.05375 48.6425,84.25875 C48.578,83.2285 47.6915,82.44425 46.65625,82.51075 Z" id="Fill-13" fill="#000000"></path>
                <path d="M45.79775,78.0225 C45.90825,78.0225 46.0195,78.01275 46.13,77.99225 C47.1475,77.8095 47.82525,76.838 47.6425,75.82025 C47.47075,74.8595 47.27825,73.91125 47.07225,73.003 C46.84175,71.995 45.83975,71.36425 44.831,71.59475 C43.82325,71.82325 43.1925,72.82625 43.42275,73.834 C43.61725,74.6865 43.797,75.57625 43.959,76.4795 C44.121,77.38575 44.90925,78.0225 45.79775,78.0225 Z" id="Fill-14" fill="#000000"></path>
            </g>
        </g>
    </g>
</svg>