<?xml version="1.0" encoding="UTF-8"?>
<svg width="92px" height="107px" viewBox="0 0 92 107" version="1.1" xmlns="http://www.w3.org/2000/svg" xmlns:xlink="http://www.w3.org/1999/xlink">
    <!-- Generator: Sketch 64 (93537) - https://sketch.com -->
    <title>Group 4</title>
    <desc>Created with Sketch.</desc>
    <defs>
        <path d="M19.1873561,30.0773231 C23.0206895,26.2366998 24.9373561,21.9808611 24.9373561,17.3098071 C24.9373561,12.638753 23.0206895,7.22792502 19.1873561,1.07732306 C15.3540228,7.22792502 13.4373561,12.638753 13.4373561,17.3098071 C13.4373561,21.9808611 15.3540228,26.2366998 19.1873561,30.0773231 Z" id="path-1"></path>
    </defs>
    <g id="Page-2" stroke="none" stroke-width="1" fill="none" fill-rule="evenodd">
        <g id="iPhone-11-Copy" transform="translate(-103.000000, -84.000000)">
            <g id="Group-4" transform="translate(100.000000, 84.000000)">
                <g id="Group-3">
                    <g id="Group-7" transform="translate(43.500000, 36.500000) scale(-1, 1) translate(-43.500000, -36.500000) translate(0.500000, 0.000000)">
                        <g id="Group-6" transform="translate(43.000000, 36.500000) scale(-1, 1) translate(-43.000000, -36.500000) translate(0.500000, 0.000000)">
                            <circle id="Oval" fill="#A7006B" cx="51.75" cy="21.25" r="21.25"></circle>
                            <circle id="Oval" fill="#A7006B" cx="58" cy="59" r="14"></circle>
                            <circle id="Oval" fill="#B7006D" opacity="0.659714472" cx="75.625" cy="42.625" r="8.625"></circle>
                            <circle id="Oval" fill="#B7006D" opacity="0.447730655" cx="38.3125" cy="47.3125" r="4.3125"></circle>
                            <circle id="Oval" fill="#B7006D" opacity="0.433035714" cx="78.25" cy="27.75" r="3.25"></circle>
                            <path d="M15.75,47.5 C19.5833333,43.6593767 21.5,39.403538 21.5,34.732484 C21.5,30.06143 19.5833333,24.650602 15.75,18.5 C11.9166667,24.650602 10,30.06143 10,34.732484 C10,39.403538 11.9166667,43.6593767 15.75,47.5 Z" id="Oval" fill="#7A2759" transform="translate(15.750000, 33.000000) scale(-1, 1) rotate(72.000000) translate(-15.750000, -33.000000) "></path>
                            <mask id="mask-2" fill="white">
                                <use xlink:href="#path-1"></use>
                            </mask>
                            <use id="Oval" fill="#7A2759" transform="translate(19.187356, 15.577323) scale(-1, 1) rotate(30.000000) translate(-19.187356, -15.577323) " xlink:href="#path-1"></use>
                            <circle id="Oval" fill="#EE58B2" mask="url(#mask-2)" cx="80.3125" cy="22.8125" r="4.3125"></circle>
                        </g>
                    </g>
                </g>
                <path d="M24.1,103.42 C24.3133333,103.42 24.5566667,103.34 24.83,103.18 C25.1033333,103.02 25.2666667,102.806667 25.32,102.54 C24.4666667,101.886667 23.7266667,101.243333 23.1,100.61 C22.4733333,99.9766667 21.9233333,99.3433333 21.45,98.71 C20.9766667,98.0766667 20.5333333,97.44 20.12,96.8 C19.7066667,96.16 19.2866667,95.5 18.86,94.82 C19.18,94.8066667 19.5833333,94.78 20.07,94.74 C20.5566667,94.7 21.0866667,94.6233333 21.66,94.51 C22.2333333,94.3966667 22.8,94.24 23.36,94.04 C23.92,93.84 24.4333333,93.58 24.9,93.26 C25.3666667,92.94 25.74,92.55 26.02,92.09 C26.3,91.63 26.44,91.0866667 26.44,90.46 C26.44,89.7666667 26.2733333,89.1733333 25.94,88.68 C25.6066667,88.1866667 25.1666667,87.7866667 24.62,87.48 C24.0733333,87.1733333 23.48,86.95 22.84,86.81 C22.2,86.67 21.58,86.6 20.98,86.6 C20.34,86.6 19.72,86.6633333 19.12,86.79 C18.52,86.9166667 17.97,87.0666667 17.47,87.24 C16.97,87.4133333 16.5333333,87.5733333 16.16,87.72 C16.16,87.8133333 16.21,87.9233333 16.31,88.05 C16.41,88.1766667 16.5266667,88.2833333 16.66,88.37 C16.7933333,88.4566667 16.8933333,88.5 16.96,88.5 C17.0533333,88.5 17.2233333,88.4333333 17.47,88.3 C17.7166667,88.1666667 18.0366667,88.0133333 18.43,87.84 C18.8233333,87.6666667 19.28,87.5266667 19.8,87.42 C19.3466667,88.46 18.9466667,89.3933333 18.6,90.22 C18.2533333,91.0466667 17.9366667,91.8366667 17.65,92.59 C17.3633333,93.3433333 17.0833333,94.1033333 16.81,94.87 C16.5366667,95.6366667 16.2466667,96.4766667 15.94,97.39 C15.6333333,98.3033333 15.2866667,99.34 14.9,100.5 C14.8466667,100.686667 14.7866667,100.88 14.72,101.08 C14.6533333,101.28 14.62,101.453333 14.62,101.6 C14.62,101.946667 14.79,102.226667 15.13,102.44 C15.47,102.653333 15.8333333,102.76 16.22,102.76 C16.5133333,101.746667 16.8233333,100.643333 17.15,99.45 C17.4766667,98.2566667 17.82,97.0466667 18.18,95.82 C18.4466667,96.3666667 18.7733333,96.98 19.16,97.66 C19.5466667,98.34 19.9566667,99.0166667 20.39,99.69 C20.8233333,100.363333 21.2633333,100.98 21.71,101.54 C22.1566667,102.1 22.5866667,102.553333 23,102.9 C23.4133333,103.246667 23.78,103.42 24.1,103.42 Z M18.64,94.22 C19.04,92.9133333 19.4533333,91.6566667 19.88,90.45 C20.3066667,89.2433333 20.7466667,88.1933333 21.2,87.3 C21.8,87.3133333 22.3733333,87.4066667 22.92,87.58 C23.4666667,87.7533333 23.9133333,88.0366667 24.26,88.43 C24.6066667,88.8233333 24.78,89.3666667 24.78,90.06 C24.78,90.74 24.6033333,91.33 24.25,91.83 C23.8966667,92.33 23.4233333,92.7466667 22.83,93.08 C22.2366667,93.4133333 21.5766667,93.6733333 20.85,93.86 C20.1233333,94.0466667 19.3866667,94.1666667 18.64,94.22 Z M27.5701177,101.88 C28.2901177,101.88 28.993451,101.713333 29.6801177,101.38 C30.3667843,101.046667 30.993451,100.58 31.5601177,99.98 C32.1267843,99.38 32.5901177,98.68 32.9501177,97.88 L32.9501177,97.88 L32.5501177,97.56 C32.2167843,98.2 31.8001177,98.78 31.3001177,99.3 C30.8001177,99.82 30.2667843,100.236667 29.7001177,100.55 C29.133451,100.863333 28.5701177,101.02 28.0101177,101.02 C27.6367843,101.02 27.343451,100.953333 27.1301177,100.82 C26.9167843,100.686667 26.763451,100.526667 26.6701177,100.34 C26.5767843,100.153333 26.5201177,99.9766667 26.5001177,99.81 C26.4801177,99.6433333 26.4701177,99.5266667 26.4701177,99.46 C26.4701177,99.3266667 26.473451,99.23 26.4801177,99.17 C26.4867843,99.11 26.4967843,99.0533333 26.5101177,99 C27.1101177,98.9333333 27.7067843,98.79 28.3001177,98.57 C28.893451,98.35 29.4367843,98.0666667 29.9301177,97.72 C30.423451,97.3733333 30.8167843,96.98 31.1101177,96.54 C31.403451,96.1 31.5501177,95.6266667 31.5501177,95.12 C31.5501177,94.5866667 31.393451,94.23 31.0801177,94.05 C30.7667843,93.87 30.4367843,93.78 30.0901177,93.78 C29.4767843,93.78 28.863451,93.96 28.2501177,94.32 C27.6367843,94.68 27.0767843,95.15 26.5701177,95.73 C26.063451,96.31 25.6601177,96.93 25.3601177,97.59 C25.0601177,98.25 24.9101177,98.8733333 24.9101177,99.46 C24.9101177,100.153333 25.1401177,100.73 25.6001177,101.19 C26.0601177,101.65 26.7167843,101.88 27.5701177,101.88 Z M26.7301177,98.26 C26.8767843,97.8466667 27.0767843,97.4266667 27.3301177,97 C27.583451,96.5733333 27.8701177,96.1833333 28.1901177,95.83 C28.5101177,95.4766667 28.8367843,95.19 29.1701177,94.97 C29.503451,94.75 29.823451,94.64 30.1301177,94.64 C30.2501177,94.64 30.3367843,94.6666667 30.3901177,94.72 C30.443451,94.7733333 30.4701177,94.8733333 30.4701177,95.02 C30.4701177,95.3933333 30.343451,95.7633333 30.0901177,96.13 C29.8367843,96.4966667 29.513451,96.8333333 29.1201177,97.14 C28.7267843,97.4466667 28.3167843,97.7 27.8901177,97.9 C27.463451,98.1 27.0767843,98.22 26.7301177,98.26 Z M32.5802353,101.94 C33.086902,101.94 33.5635687,101.753333 34.0102353,101.38 C34.456902,101.006667 34.946902,100.5 35.4802353,99.86 L35.4802353,99.86 L35.4802353,99.96 C35.506902,100.36 35.6535687,100.733333 35.9202353,101.08 C36.186902,101.426667 36.5935687,101.6 37.1402353,101.6 C37.646902,101.6 38.146902,101.443333 38.6402353,101.13 C39.1335687,100.816667 39.6035687,100.383333 40.0502353,99.83 C40.496902,99.2766667 40.8802353,98.64 41.2002353,97.92 L41.2002353,97.92 L40.8202353,97.54 C40.2202353,98.6733333 39.6302353,99.4766667 39.0502353,99.95 C38.4702353,100.423333 38.0202353,100.66 37.7002353,100.66 C37.486902,100.66 37.3335687,100.583333 37.2402353,100.43 C37.146902,100.276667 37.1002353,100.113333 37.1002353,99.94 C37.1002353,99.7133333 37.156902,99.4766667 37.2702353,99.23 C37.3835687,98.9833333 37.516902,98.7366667 37.6702353,98.49 C37.8235687,98.2433333 37.956902,98.0166667 38.0702353,97.81 C38.1835687,97.6033333 38.2402353,97.4333333 38.2402353,97.3 C38.2402353,97.1533333 38.1735687,97.0333333 38.0402353,96.94 C37.906902,96.8466667 37.7635687,96.7766667 37.6102353,96.73 C37.456902,96.6833333 37.3535687,96.6533333 37.3002353,96.64 C37.2335687,96.64 37.1802353,96.6733333 37.1402353,96.74 C36.886902,97.0733333 36.586902,97.4766667 36.2402353,97.95 C35.8935687,98.4233333 35.5302353,98.8866667 35.1502353,99.34 C34.7702353,99.7933333 34.3935687,100.17 34.0202353,100.47 C33.646902,100.77 33.306902,100.92 33.0002353,100.92 C32.6935687,100.92 32.5402353,100.706667 32.5402353,100.28 C32.5402353,99.9066667 32.6202353,99.4866667 32.7802353,99.02 C32.9402353,98.5533333 33.1602353,98.0766667 33.4402353,97.59 C33.7202353,97.1033333 34.036902,96.6566667 34.3902353,96.25 C34.7435687,95.8433333 35.1135687,95.5133333 35.5002353,95.26 C35.886902,95.0066667 36.266902,94.88 36.6402353,94.88 C36.986902,94.88 37.2135687,94.9866667 37.3202353,95.2 C37.426902,95.4133333 37.4802353,95.6533333 37.4802353,95.92 C37.4802353,96.0533333 37.4702353,96.18 37.4502353,96.3 C37.4302353,96.42 37.406902,96.54 37.3802353,96.66 C37.726902,96.7266667 38.026902,96.68 38.2802353,96.52 C38.5335687,96.36 38.6602353,96.1 38.6602353,95.74 C38.6602353,95.26 38.4602353,94.8733333 38.0602353,94.58 C37.6602353,94.2866667 37.1735687,94.14 36.6002353,94.14 C36.0535687,94.14 35.506902,94.2733333 34.9602353,94.54 C34.4135687,94.8066667 33.9002353,95.1566667 33.4202353,95.59 C32.9402353,96.0233333 32.5135687,96.5066667 32.1402353,97.04 C31.766902,97.5733333 31.4735687,98.1133333 31.2602353,98.66 C31.046902,99.2066667 30.9402353,99.7133333 30.9402353,100.18 C30.9402353,100.766667 31.1035687,101.206667 31.4302353,101.5 C31.756902,101.793333 32.1402353,101.94 32.5802353,101.94 Z M41.110353,101.6 C41.510353,101.6 41.930353,101.466667 42.370353,101.2 C42.810353,100.933333 43.260353,100.563333 43.720353,100.09 C44.180353,99.6166667 44.6170196,99.08 45.030353,98.48 C44.990353,98.6933333 44.9536863,98.91 44.920353,99.13 C44.8870196,99.35 44.870353,99.5666667 44.870353,99.78 C44.870353,100.246667 44.9770196,100.653333 45.190353,101 C45.4036863,101.346667 45.7836863,101.52 46.330353,101.52 C46.8370196,101.52 47.350353,101.363333 47.870353,101.05 C48.390353,100.736667 48.8770196,100.3 49.330353,99.74 C49.7836863,99.18 50.1570196,98.5333333 50.450353,97.8 L50.450353,97.8 L50.070353,97.48 C49.7636863,98.1066667 49.4236863,98.6433333 49.050353,99.09 C48.6770196,99.5366667 48.310353,99.8733333 47.950353,100.1 C47.590353,100.326667 47.2636863,100.44 46.970353,100.44 C46.8236863,100.44 46.720353,100.383333 46.660353,100.27 C46.600353,100.156667 46.570353,99.94 46.570353,99.62 C46.570353,98.9 46.680353,98.13 46.900353,97.31 C47.120353,96.49 47.400353,95.6566667 47.740353,94.81 C48.080353,93.9633333 48.4470196,93.1366667 48.840353,92.33 C49.2336863,91.5233333 49.600353,90.7733333 49.940353,90.08 C50.280353,89.3866667 50.560353,88.79 50.780353,88.29 C51.000353,87.79 51.110353,87.4266667 51.110353,87.2 C51.110353,87.0266667 51.0536863,86.8833333 50.940353,86.77 C50.8270196,86.6566667 50.6970196,86.6 50.550353,86.6 C50.310353,86.6 50.0470196,86.77 49.760353,87.11 C49.4736863,87.45 49.1736863,87.9066667 48.860353,88.48 C48.5470196,89.0533333 48.230353,89.7066667 47.910353,90.44 C47.590353,91.1733333 47.270353,91.9366667 46.950353,92.73 C46.630353,93.5233333 46.3236863,94.3 46.030353,95.06 C45.6036863,96.1666667 45.1270196,97.1166667 44.600353,97.91 C44.0736863,98.7033333 43.560353,99.31 43.060353,99.73 C42.560353,100.15 42.130353,100.36 41.770353,100.36 C41.5570196,100.36 41.3970196,100.283333 41.290353,100.13 C41.1836863,99.9766667 41.130353,99.7733333 41.130353,99.52 C41.130353,99.2133333 41.1970196,98.85 41.330353,98.43 C41.4636863,98.01 41.6536863,97.5733333 41.900353,97.12 C42.1470196,96.6666667 42.4370196,96.2466667 42.770353,95.86 C43.1036863,95.4733333 43.470353,95.1566667 43.870353,94.91 C44.270353,94.6633333 44.690353,94.54 45.130353,94.54 C45.2770196,94.54 45.4170196,94.5566667 45.550353,94.59 C45.6836863,94.6233333 45.7770196,94.68 45.830353,94.76 C45.9370196,94.6933333 46.0036863,94.6166667 46.030353,94.53 C46.0570196,94.4433333 46.070353,94.3666667 46.070353,94.3 C46.070353,94.0733333 45.9836863,93.91 45.810353,93.81 C45.6370196,93.71 45.3970196,93.66 45.090353,93.66 C44.530353,93.66 43.9770196,93.8 43.430353,94.08 C42.8836863,94.36 42.3670196,94.7266667 41.880353,95.18 C41.3936863,95.6333333 40.9670196,96.1333333 40.600353,96.68 C40.2336863,97.2266667 39.9436863,97.7733333 39.730353,98.32 C39.5170196,98.8666667 39.410353,99.36 39.410353,99.8 C39.410353,100.213333 39.500353,100.553333 39.680353,100.82 C39.860353,101.086667 40.080353,101.283333 40.340353,101.41 C40.600353,101.536667 40.8570196,101.6 41.110353,101.6 Z M49.9004706,106.6 C50.433804,106.6 50.933804,106.383333 51.4004706,105.95 C51.8671373,105.516667 52.3104706,104.933333 52.7304706,104.2 C53.1504706,103.466667 53.5404706,102.666667 53.9004706,101.8 C54.4204706,101.573333 54.933804,101.286667 55.4404706,100.94 C55.9471373,100.593333 56.403804,100.173333 56.8104706,99.68 C57.2171373,99.1866667 57.5204706,98.6066667 57.7204706,97.94 L57.7204706,97.94 L57.3804706,97.66 C57.0071373,98.6333333 56.5171373,99.3833333 55.9104706,99.91 C55.303804,100.436667 54.7204706,100.813333 54.1604706,101.04 C54.4404706,100.28 54.693804,99.52 54.9204706,98.76 C55.1471373,98 55.3304706,97.33 55.4704706,96.75 C55.6104706,96.17 55.6804706,95.78 55.6804706,95.58 C55.5471373,95.5533333 55.433804,95.5333333 55.3404706,95.52 C55.2471373,95.5066667 55.1471373,95.5 55.0404706,95.5 C54.733804,95.5 54.4971373,95.5933333 54.3304706,95.78 C54.163804,95.9666667 54.0471373,96.1733333 53.9804706,96.4 C53.913804,96.6133333 53.8671373,96.82 53.8404706,97.02 C53.813804,97.22 53.7871373,97.3666667 53.7604706,97.46 C53.5204706,97.8466667 53.2504706,98.2266667 52.9504706,98.6 C52.6504706,98.9733333 52.343804,99.28 52.0304706,99.52 C51.7171373,99.76 51.413804,99.88 51.1204706,99.88 C50.893804,99.88 50.7404706,99.8066667 50.6604706,99.66 C50.5804706,99.5133333 50.5404706,99.34 50.5404706,99.14 C50.5404706,98.8866667 50.583804,98.5866667 50.6704706,98.24 C50.7571373,97.8933333 50.8671373,97.5366667 51.0004706,97.17 C51.133804,96.8033333 51.273804,96.47 51.4204706,96.17 C51.5671373,95.87 51.7004706,95.64 51.8204706,95.48 C51.7804706,95.36 51.6871373,95.25 51.5404706,95.15 C51.393804,95.05 51.243804,94.97 51.0904706,94.91 C50.9371373,94.85 50.8204706,94.82 50.7404706,94.82 C50.5804706,94.82 50.393804,94.9766667 50.1804706,95.29 C49.9671373,95.6033333 49.763804,95.9966667 49.5704706,96.47 C49.3771373,96.9433333 49.2171373,97.4266667 49.0904706,97.92 C48.963804,98.4133333 48.9004706,98.8333333 48.9004706,99.18 C48.9004706,99.5933333 48.9904706,99.9233333 49.1704706,100.17 C49.3504706,100.416667 49.573804,100.59 49.8404706,100.69 C50.1071373,100.79 50.3604706,100.84 50.6004706,100.84 C51.173804,100.84 51.693804,100.62 52.1604706,100.18 C52.6271373,99.74 53.0671373,99.2333333 53.4804706,98.66 C53.3471373,99.1666667 53.1904706,99.7166667 53.0104706,100.31 C52.8304706,100.903333 52.6671373,101.393333 52.5204706,101.78 C52.093804,101.98 51.6504706,102.196667 51.1904706,102.43 C50.7304706,102.663333 50.3004706,102.923333 49.9004706,103.21 C49.5004706,103.496667 49.173804,103.81 48.9204706,104.15 C48.6671373,104.49 48.5404706,104.873333 48.5404706,105.3 C48.5404706,105.753333 48.683804,106.083333 48.9704706,106.29 C49.2571373,106.496667 49.5671373,106.6 49.9004706,106.6 Z M49.7004706,105.86 C49.5671373,105.86 49.4704706,105.8 49.4104706,105.68 C49.3504706,105.56 49.3204706,105.433333 49.3204706,105.3 C49.3204706,104.966667 49.4671373,104.64 49.7604706,104.32 C50.053804,104 50.4171373,103.696667 50.8504706,103.41 C51.283804,103.123333 51.713804,102.873333 52.1404706,102.66 C51.673804,103.726667 51.213804,104.526667 50.7604706,105.06 C50.3071373,105.593333 49.953804,105.86 49.7004706,105.86 Z M58.9305883,102.74 C59.5305883,102.74 60.2105883,102.663333 60.9705883,102.51 C61.7305883,102.356667 62.497255,102.123333 63.2705883,101.81 C64.0439216,101.496667 64.757255,101.106667 65.4105883,100.64 C66.0639216,100.173333 66.5905883,99.6266667 66.9905883,99 C67.3905883,98.3733333 67.5905883,97.6733333 67.5905883,96.9 C67.5905883,96.58 67.537255,96.2466667 67.4305883,95.9 C67.3239216,95.5533333 67.1139216,95.2233333 66.8005883,94.91 C66.487255,94.5966667 66.027255,94.3266667 65.4205883,94.1 C64.8139216,93.8733333 64.017255,93.7333333 63.0305883,93.68 C63.5505883,93.6 64.077255,93.4733333 64.6105883,93.3 C65.1439216,93.1266667 65.637255,92.89 66.0905883,92.59 C66.5439216,92.29 66.9105883,91.91 67.1905883,91.45 C67.4705883,90.99 67.6105883,90.4333333 67.6105883,89.78 C67.6105883,89.0866667 67.457255,88.53 67.1505883,88.11 C66.8439216,87.69 66.4505883,87.37 65.9705883,87.15 C65.4905883,86.93 64.9839216,86.7833333 64.4505883,86.71 C63.917255,86.6366667 63.4305883,86.6 62.9905883,86.6 C61.9505883,86.6 61.067255,86.7133333 60.3405883,86.94 C59.6139216,87.1666667 58.917255,87.42 58.2505883,87.7 C58.2505883,87.7666667 58.2905883,87.8433333 58.3705883,87.93 C58.4505883,88.0166667 58.5405883,88.09 58.6405883,88.15 C58.7405883,88.21 58.8239216,88.24 58.8905883,88.24 C58.9839216,88.24 59.137255,88.17 59.3505883,88.03 C59.5639216,87.89 59.8605883,87.7333333 60.2405883,87.56 C60.6205883,87.3866667 61.0905883,87.2533333 61.6505883,87.16 C61.3039216,87.84 60.947255,88.62 60.5805883,89.5 C60.2139216,90.38 59.857255,91.28 59.5105883,92.2 C59.1639216,93.12 58.847255,94 58.5605883,94.84 C58.2739216,95.68 58.0305883,96.4133333 57.8305883,97.04 C57.6305883,97.6666667 57.4905883,98.1133333 57.4105883,98.38 L57.3550327,98.56 C57.3165142,98.6844444 57.2750327,98.8177778 57.2305883,98.96 C57.1639216,99.1733333 57.1305883,99.36 57.1305883,99.52 C57.1305883,99.7866667 57.2439216,100.013333 57.4705883,100.2 C57.697255,100.386667 57.977255,100.48 58.3105883,100.48 C58.617255,99.4533333 58.917255,98.3933333 59.2105883,97.3 C59.5039216,96.2066667 59.8039216,95.12 60.1105883,94.04 C60.337255,94.04 60.5805883,94.0366667 60.8405883,94.03 C61.1005883,94.0233333 61.357255,94.02 61.6105883,94.02 C62.1839216,94.02 62.7639216,94.05 63.3505883,94.11 C63.937255,94.17 64.4805883,94.2866667 64.9805883,94.46 C65.4805883,94.6333333 65.8839216,94.8866667 66.1905883,95.22 C66.497255,95.5533333 66.6505883,95.9933333 66.6505883,96.54 C66.6505883,97.14 66.4539216,97.7233333 66.0605883,98.29 C65.667255,98.8566667 65.1139216,99.3666667 64.4005883,99.82 C63.687255,100.273333 62.8439216,100.63 61.8705883,100.89 C60.897255,101.15 59.837255,101.28 58.6905883,101.28 C58.0105883,101.28 57.5505883,101.246667 57.3105883,101.18 C57.0705883,101.113333 56.9039216,101.08 56.8105883,101.08 C56.7439216,101.08 56.7105883,101.1 56.7105883,101.14 C56.7105883,101.713333 56.897255,102.123333 57.2705883,102.37 C57.6439216,102.616667 58.197255,102.74 58.9305883,102.74 Z M60.2305883,93.58 C60.577255,92.3933333 60.947255,91.24 61.3405883,90.12 C61.7339216,89 62.1705883,87.9733333 62.6505883,87.04 C62.717255,87.0266667 62.7805883,87.02 62.8405883,87.02 L62.8405883,87.02 L63.0305883,87.02 C63.6039216,87.02 64.147255,87.0933333 64.6605883,87.24 C65.1739216,87.3866667 65.5939216,87.6466667 65.9205883,88.02 C66.247255,88.3933333 66.4105883,88.9266667 66.4105883,89.62 C66.4105883,90.3533333 66.227255,90.9666667 65.8605883,91.46 C65.4939216,91.9533333 65.0105883,92.3533333 64.4105883,92.66 C63.8105883,92.9666667 63.147255,93.19 62.4205883,93.33 C61.6939216,93.47 60.9639216,93.5533333 60.2305883,93.58 Z M70.040706,101.88 C70.7073726,101.88 71.3640393,101.716667 72.010706,101.39 C72.6573726,101.063333 73.2573726,100.606667 73.810706,100.02 C74.3640393,99.4333333 74.820706,98.74 75.180706,97.94 L75.180706,97.94 L74.940706,97.76 C74.6073726,98.4 74.200706,98.9866667 73.720706,99.52 C73.240706,100.053333 72.720706,100.483333 72.160706,100.81 C71.600706,101.136667 71.0340393,101.3 70.460706,101.3 C70.1540393,101.3 69.8973726,101.253333 69.690706,101.16 C69.4840393,101.066667 69.320706,100.936667 69.200706,100.77 C69.080706,100.603333 68.9973726,100.42 68.950706,100.22 C68.9040393,100.02 68.880706,99.82 68.880706,99.62 C68.880706,99.5133333 68.8873726,99.4 68.900706,99.28 C68.9140393,99.16 68.9340393,99.0333333 68.960706,98.9 C69.5340393,98.8466667 70.110706,98.71 70.690706,98.49 C71.270706,98.27 71.8040393,97.9866667 72.290706,97.64 C72.7773726,97.2933333 73.170706,96.8966667 73.470706,96.45 C73.770706,96.0033333 73.920706,95.5266667 73.920706,95.02 C73.920706,94.5266667 73.790706,94.2 73.530706,94.04 C73.270706,93.88 72.9873726,93.8 72.680706,93.8 C72.0940393,93.8 71.500706,93.9833333 70.900706,94.35 C70.300706,94.7166667 69.750706,95.1933333 69.250706,95.78 C68.750706,96.3666667 68.350706,96.9933333 68.050706,97.66 C67.750706,98.3266667 67.600706,98.96 67.600706,99.56 C67.600706,100.213333 67.8040393,100.763333 68.210706,101.21 C68.6173726,101.656667 69.2273726,101.88 70.040706,101.88 Z M69.060706,98.52 C69.1940393,98.04 69.3940393,97.56 69.660706,97.08 C69.9273726,96.6 70.2273726,96.16 70.560706,95.76 C70.8940393,95.36 71.240706,95.0366667 71.600706,94.79 C71.960706,94.5433333 72.300706,94.42 72.620706,94.42 C72.7940393,94.42 72.9073726,94.46 72.960706,94.54 C73.0140393,94.62 73.040706,94.7333333 73.040706,94.88 C73.040706,95.3066667 72.9040393,95.7133333 72.630706,96.1 C72.3573726,96.4866667 72.010706,96.84 71.590706,97.16 C71.170706,97.48 70.7340393,97.7566667 70.280706,97.99 C69.8273726,98.2233333 69.420706,98.4 69.060706,98.52 Z M77.3908236,101.52 C77.9641569,101.52 78.5208236,101.346667 79.0608236,101 C79.6008236,100.653333 80.0908236,100.21 80.5308236,99.67 C80.9708236,99.13 81.3174903,98.58 81.5708236,98.02 L81.5708236,98.02 L81.3108236,97.82 C81.1908236,98.1133333 81.0041569,98.43 80.7508236,98.77 C80.4974903,99.11 80.2108236,99.4333333 79.8908236,99.74 C79.5708236,100.046667 79.2408236,100.3 78.9008236,100.5 C78.5608236,100.7 78.2308236,100.8 77.9108236,100.8 C77.7508236,100.8 77.6108236,100.76 77.4908236,100.68 C77.3708236,100.6 77.3108236,100.44 77.3108236,100.2 C77.3108236,99.92 77.3941569,99.5933333 77.5608236,99.22 C77.7274903,98.8466667 77.8941569,98.4533333 78.0608236,98.04 C78.2274903,97.6266667 78.3108236,97.22 78.3108236,96.82 C78.3108236,96.3933333 78.2074903,96.0433333 78.0008236,95.77 C77.7941569,95.4966667 77.5574903,95.2633333 77.2908236,95.07 C77.0241569,94.8766667 76.7874903,94.7033333 76.5808236,94.55 C76.3741569,94.3966667 76.2708236,94.2266667 76.2708236,94.04 C76.2708236,94 76.3074903,93.8833333 76.3808236,93.69 C76.4541569,93.4966667 76.4908236,93.3666667 76.4908236,93.3 C76.4908236,93.2333333 76.4808236,93.1366667 76.4608236,93.01 C76.4408236,92.8833333 76.3574903,92.82 76.2108236,92.82 C76.1041569,92.82 75.9374903,92.9466667 75.7108236,93.2 C75.4841569,93.4533333 75.3708236,93.78 75.3708236,94.18 C75.3708236,94.3666667 75.4374903,94.5266667 75.5708236,94.66 C75.2774903,95.5133333 74.9808236,96.2733333 74.6808236,96.94 C74.3808236,97.6066667 74.1374903,98.1133333 73.9508236,98.46 L73.9508236,98.46 L74.1308236,98.8 C74.3441569,98.44 74.6174903,97.9066667 74.9508236,97.2 C75.2841569,96.4933333 75.6041569,95.7466667 75.9108236,94.96 C76.1641569,95.1333333 76.4141569,95.3233333 76.6608236,95.53 C76.9074903,95.7366667 77.0308236,96.0533333 77.0308236,96.48 C77.0308236,96.8266667 76.9408236,97.2166667 76.7608236,97.65 C76.5808236,98.0833333 76.3974903,98.52 76.2108236,98.96 C76.0241569,99.4 75.9308236,99.82 75.9308236,100.22 C75.9308236,100.606667 76.0608236,100.92 76.3208236,101.16 C76.5808236,101.4 76.9374903,101.52 77.3908236,101.52 Z M83.7409413,101.52 C84.3142746,101.52 84.8709413,101.346667 85.4109413,101 C85.9509413,100.653333 86.4409413,100.21 86.8809413,99.67 C87.3209413,99.13 87.6676079,98.58 87.9209413,98.02 L87.9209413,98.02 L87.6609413,97.82 C87.5409413,98.1133333 87.3542746,98.43 87.1009413,98.77 C86.8476079,99.11 86.5609413,99.4333333 86.2409413,99.74 C85.9209413,100.046667 85.5909413,100.3 85.2509413,100.5 C84.9109413,100.7 84.5809413,100.8 84.2609413,100.8 C84.1009413,100.8 83.9609413,100.76 83.8409413,100.68 C83.7209413,100.6 83.6609413,100.44 83.6609413,100.2 C83.6609413,99.92 83.7442746,99.5933333 83.9109413,99.22 C84.0776079,98.8466667 84.2442746,98.4533333 84.4109413,98.04 C84.5776079,97.6266667 84.6609413,97.22 84.6609413,96.82 C84.6609413,96.3933333 84.5576079,96.0433333 84.3509413,95.77 C84.1442746,95.4966667 83.9076079,95.2633333 83.6409413,95.07 C83.3742746,94.8766667 83.1376079,94.7033333 82.9309413,94.55 C82.7242746,94.3966667 82.6209413,94.2266667 82.6209413,94.04 C82.6209413,94 82.6576079,93.8833333 82.7309413,93.69 C82.8042746,93.4966667 82.8409413,93.3666667 82.8409413,93.3 C82.8409413,93.2333333 82.8309413,93.1366667 82.8109413,93.01 C82.7909413,92.8833333 82.7076079,92.82 82.5609413,92.82 C82.4542746,92.82 82.2876079,92.9466667 82.0609413,93.2 C81.8342746,93.4533333 81.7209413,93.78 81.7209413,94.18 C81.7209413,94.3666667 81.7876079,94.5266667 81.9209413,94.66 C81.6276079,95.5133333 81.3309413,96.2733333 81.0309413,96.94 C80.7309413,97.6066667 80.4876079,98.1133333 80.3009413,98.46 L80.3009413,98.46 L80.4809413,98.8 C80.6942746,98.44 80.9676079,97.9066667 81.3009413,97.2 C81.6342746,96.4933333 81.9542746,95.7466667 82.2609413,94.96 C82.5142746,95.1333333 82.7642746,95.3233333 83.0109413,95.53 C83.2576079,95.7366667 83.3809413,96.0533333 83.3809413,96.48 C83.3809413,96.8266667 83.2909413,97.2166667 83.1109413,97.65 C82.9309413,98.0833333 82.7476079,98.52 82.5609413,98.96 C82.3742746,99.4 82.2809413,99.82 82.2809413,100.22 C82.2809413,100.606667 82.4109413,100.92 82.6709413,101.16 C82.9309413,101.4 83.2876079,101.52 83.7409413,101.52 Z M87.4910589,106.6 C87.9577256,106.6 88.4143923,106.37 88.8610589,105.91 C89.3077256,105.45 89.7343923,104.846667 90.1410589,104.1 C90.5477256,103.353333 90.9243923,102.553333 91.2710589,101.7 C91.7643923,101.473333 92.2643923,101.19 92.7710589,100.85 C93.2777256,100.51 93.7343923,100.103333 94.1410589,99.63 C94.5477256,99.1566667 94.8510589,98.6 95.0510589,97.96 L95.0510589,97.96 L94.7910589,97.76 C94.4177256,98.68 93.9310589,99.4166667 93.3310589,99.97 C92.7310589,100.523333 92.1177256,100.92 91.4910589,101.16 C91.8110589,100.346667 92.0877256,99.5533333 92.3210589,98.78 C92.5543923,98.0066667 92.7343923,97.33 92.8610589,96.75 C92.9877256,96.17 93.0510589,95.7733333 93.0510589,95.56 C92.9710589,95.5333333 92.8977256,95.5166667 92.8310589,95.51 C92.7643923,95.5033333 92.6977256,95.5 92.6310589,95.5 C92.2977256,95.5 92.0543923,95.6233333 91.9010589,95.87 C91.7477256,96.1166667 91.6510589,96.3333333 91.6110589,96.52 C91.5843923,96.68 91.5543923,96.8366667 91.5210589,96.99 C91.4877256,97.1433333 91.4510589,97.2933333 91.4110589,97.44 C91.1443923,97.88 90.8543923,98.2933333 90.5410589,98.68 C90.2277256,99.0666667 89.9143923,99.3833333 89.6010589,99.63 C89.2877256,99.8766667 89.0043923,100 88.7510589,100 C88.4843923,100 88.2977256,99.9266667 88.1910589,99.78 C88.0843923,99.6333333 88.0310589,99.44 88.0310589,99.2 C88.0310589,98.9333333 88.0777256,98.6133333 88.1710589,98.24 C88.2643923,97.8666667 88.3810589,97.4833333 88.5210589,97.09 C88.6610589,96.6966667 88.8043923,96.34 88.9510589,96.02 C89.0977256,95.7 89.2310589,95.4533333 89.3510589,95.28 C89.3510589,95.2 89.2877256,95.1233333 89.1610589,95.05 C89.0343923,94.9766667 88.9010589,94.92 88.7610589,94.88 C88.6210589,94.84 88.5243923,94.82 88.4710589,94.82 C88.3243923,94.82 88.1510589,94.9733333 87.9510589,95.28 C87.7510589,95.5866667 87.5577256,95.9733333 87.3710589,96.44 C87.1843923,96.9066667 87.0277256,97.3866667 86.9010589,97.88 C86.7743923,98.3733333 86.7110589,98.8066667 86.7110589,99.18 C86.7110589,99.5533333 86.7910589,99.86 86.9510589,100.1 C87.1110589,100.34 87.3143923,100.516667 87.5610589,100.63 C87.8077256,100.743333 88.0577256,100.8 88.3110589,100.8 C88.8577256,100.8 89.3743923,100.55 89.8610589,100.05 C90.3477256,99.55 90.8043923,98.9533333 91.2310589,98.26 C91.0577256,98.9933333 90.8743923,99.6633333 90.6810589,100.27 C90.4877256,100.876667 90.2977256,101.426667 90.1110589,101.92 C89.6043923,102.173333 89.1177256,102.426667 88.6510589,102.68 C88.1843923,102.933333 87.7710589,103.2 87.4110589,103.48 C87.0510589,103.76 86.7643923,104.066667 86.5510589,104.4 C86.3377256,104.733333 86.2310589,105.113333 86.2310589,105.54 C86.2310589,105.886667 86.3577256,106.15 86.6110589,106.33 C86.8643923,106.51 87.1577256,106.6 87.4910589,106.6 Z M87.3910589,105.96 C87.1910589,105.96 87.0510589,105.886667 86.9710589,105.74 C86.8910589,105.593333 86.8510589,105.466667 86.8510589,105.36 C86.8510589,104.92 86.9910589,104.533333 87.2710589,104.2 C87.5510589,103.866667 87.9243923,103.556667 88.3910589,103.27 C88.8577256,102.983333 89.3643923,102.693333 89.9110589,102.4 C89.3777256,103.72 88.8743923,104.643333 88.4010589,105.17 C87.9277256,105.696667 87.5910589,105.96 87.3910589,105.96 Z" id="ReadyBerry" fill="#4F4F4F" fill-rule="nonzero"></path>
            </g>
        </g>
    </g>
</svg>