<?xml version="1.0" encoding="UTF-8"?>
<svg width="51px" height="39px" viewBox="0 0 51 39" version="1.1" xmlns="http://www.w3.org/2000/svg" xmlns:xlink="http://www.w3.org/1999/xlink">
    <!-- Generator: sketchtool 64 (101010) - https://sketch.com -->
    <title>C0768801-8329-4680-A2E1-1A35034215C7</title>
    <desc>Created with sketchtool.</desc>
    <defs>
        <polygon id="path-1" points="0.012 0 80.7464345 0 80.7464345 102.4 0.012 102.4"></polygon>
    </defs>
    <g id="Page-1" stroke="none" stroke-width="1" fill="none" fill-rule="evenodd">
        <g id="iPhone-11-Copy" transform="translate(-275.000000, -857.000000)">
            <g id="033-peas" transform="translate(262.000000, 857.000000)">
                <path d="M47.6282,20.4976 L40.3274,23.4992 C39.957,32.6688 41.0774,49.5508 48.9562,69.5218 C59.0368,95.0726 69.121,99.7046 73.1704,100.493 C74.3672,100.7258 75.571,100.2516 76.2868,99.2632 C78.707,95.9234 82.9124,85.654 72.832,60.1024 C64.9532,40.1312 54.1602,26.9446 47.6282,20.4976 Z" id="Fill-1" fill="#CDF5A0"></path>
                <path d="M69.004,62.3532 C61.6054,43.446 51.3782,29.3156 44.0688,21.1258 L40.3274,23.4992 C39.957,32.6688 41.0774,49.5508 48.9562,69.5218 C59.0368,95.0726 69.121,99.7046 73.1704,100.493 C74.0132,100.657 74.8508,100.454 75.5282,99.9836 C76.9296,93.2476 76.5484,81.6344 69.004,62.3532 Z" id="Fill-3" fill="#B4E6A0"></path>
                <path d="M56.9274,42.3766 C56.9274,45.0344 54.7726,47.189 52.1148,47.189 C49.457,47.189 47.3024,45.0344 47.3024,42.3766 C47.3024,39.7188 49.457,37.564 52.1148,37.564 C54.7726,37.564 56.9274,39.7188 56.9274,42.3766 Z" id="Fill-6" fill="#CDF5A0"></path>
                <path d="M52.0492,33.9336 C52.0492,36.5914 49.8946,38.746 47.2368,38.746 C44.579,38.746 42.4242,36.5914 42.4242,33.9336 C42.4242,31.2758 44.579,29.121 47.2368,29.121 C49.8946,29.121 52.0492,31.2758 52.0492,33.9336 Z" id="Fill-7" fill="#CDF5A0"></path>
                <path d="M56.2438,66.1376 C48.2148,45.786 44.3054,31.0766 42.4656,22.6196 L40.3274,23.4984 C39.957,32.6688 41.0774,49.55 48.9562,69.521 C59.0368,95.0726 69.121,99.7046 73.1704,100.493 C73.596,100.5758 74.0148,100.539667 74.4204,100.4524 C72.571,99.1132 66.8704,93.0734 56.2438,66.1376 Z" id="Fill-11" fill="#96D7A5"></path>
                <g id="Group-16" transform="translate(1.400000, 12.200000)">
                    <path d="M42.5398,9.6368 L47.5696,9.6602 C48.529,9.6648 48.986,8.4812 48.2718,7.8406 L39.854,0.2868 C39.214,-0.2882 38.193,0.1148 38.118,0.971 L37.125,12.2376 C37.0406,13.1938 38.1828,13.7468 38.8804,13.0882 L42.5398,9.6368 Z" id="Fill-12" fill="#96D7A5"></path>
                    <path d="M39.7266,4.5476 L32.3742,1.6734 C25.7718,8.0476 14.9196,21.0274 6.8196,40.9102 C-3.5438,66.3476 0.5468,76.664 2.9296,80.0304 C3.6352,81.0258 4.8328,81.514 6.0328,81.2946 C10.0898,80.5516 20.225,76.032 30.5882,50.5938 C38.689,30.7118 39.9954,13.7218 39.7266,4.5476 Z" id="Fill-14" fill="#CDF5A0"></path>
                    <path d="M26.2656,49.5774 C33.979,30.796 36.346,13.514 36.7188,2.543 L32.3742,1.6742 C25.7718,8.0484 14.9196,21.0282 6.8196,40.9102 C-3.5438,66.3476 0.5468,76.664 2.9296,80.0304 C3.4266,80.732 4.1726,81.1632 4.9868,81.2914 C10.654,77.389 18.4008,68.729 26.2656,49.5774 Z" id="Fill-15" fill="#B4E6A0"></path>
                </g>
                <path d="M34.068,35.6664 C34.068,38.3242 31.9132,40.479 29.2554,40.479 C26.5976,40.479 24.443,38.3242 24.443,35.6664 C24.443,33.0086 26.5976,30.854 29.2554,30.854 C31.9132,30.854 34.068,33.0086 34.068,35.6664 Z" id="Fill-19" fill="#CDF5A0"></path>
                <path d="M36.3742,26.1914 C36.3742,28.85 34.2196,31.004 31.5618,31.004 C28.9032,31.004 26.7492,28.85 26.7492,26.1914 C26.7492,23.5336 28.9032,21.379 31.5618,21.379 C34.2196,21.379 36.3742,23.5336 36.3742,26.1914 Z" id="Fill-20" fill="#CDF5A0"></path>
                <g id="Group-28">
                    <mask id="mask-2" fill="white">
                        <use xlink:href="#path-1"></use>
                    </mask>
                    <g id="Clip-24"></g>
                    <path d="M15.8258,55.6976 C24.0804,35.4368 31.4164,22.1008 35.9282,14.7156 L33.7742,13.8742 C27.1718,20.2484 16.3196,33.2282 8.2196,53.1102 C-2.1438,78.5476 1.9468,88.864 4.3296,92.2304 C4.5804,92.5844 4.9078,92.8476 5.2618,93.0648 C4.85,90.8188 4.9008,82.514 15.8258,55.6976 Z" id="Fill-25" fill="#96D7A5" mask="url(#mask-2)"></path>
                    <path d="M37.5352,15.168 L41.1554,18.6602 C41.846,19.3258 42.9938,18.7852 42.9196,17.829 L42.0524,6.5524 C41.9868,5.6954 40.9704,5.2812 40.3242,5.8484 L31.8234,13.3078 C31.1024,13.9406 31.5454,15.1296 32.5046,15.136 L37.5352,15.168 Z" id="Fill-26" fill="#96D7A5" mask="url(#mask-2)"></path>
                    <path d="M74.214,59.804 C69.9828,49.0774 64.7554,39.475 58.6774,31.2632 C58.1844,30.5968 57.2454,30.457 56.5796,30.95 C55.9132,31.443 55.7734,32.382 56.2664,33.0476 C62.1882,41.0492 67.2882,50.4218 71.4242,60.9046 C74.9914,69.9484 78.925,82.7336 77.4008,92.2836 C76.8516,95.7274 75.682,97.8984 74.8032,98.9844 C74.079,98.361 72.7516,96.9446 70.771,93.8078 C73.85,92.4484 75.3376,88.8774 74.0914,85.7196 C73.5242,84.282 72.4742,83.1274 71.1124,82.4274 C72.471,80.718 72.9086,78.35 72.0516,76.1774 C71.3454,74.386 69.9046,73.0992 68.2102,72.5218 C68.2914,72.3696 68.368,72.2148 68.4376,72.0546 C69.1094,70.5078 69.1382,68.7922 68.5196,67.2242 C67.9008,65.6554 66.7086,64.4218 65.1618,63.75 C65.0024,63.6812 64.8398,63.6204 64.6766,63.564 C65.5204,61.986 65.6946,60.0618 64.9876,58.2704 C64.2804,56.479 62.8398,55.1922 61.146,54.6148 C61.2274,54.4632 61.304,54.3078 61.3734,54.1484 C62.0454,52.6016 62.0742,50.886 61.4554,49.3172 C60.7484,47.525 59.3062,46.2376 57.6118,45.6602 C58.4562,44.0812 58.6304,42.1562 57.9234,40.364 C57.0664,38.1914 55.1296,36.7602 52.9704,36.439 C53.4876,34.9976 53.4664,33.4368 52.8992,32 C52.2804,30.4312 51.0882,29.1976 49.5414,28.5258 C48.2218,27.9532 46.7796,27.8492 45.411,28.2148 C45.0024,26.5282 44.6532,24.9868 44.3546,23.5898 L48.2438,23.6086 C49.6078,24.993 50.9696,26.4828 52.3,28.0454 C52.596,28.3946 53.0188,28.5734 53.443,28.5734 C53.7868,28.5734 54.132,28.4562 54.414,28.2156 C55.0454,27.679 55.1218,26.7328 54.5852,26.1016 C53.8274,25.211 53.0586,24.3438 52.2852,23.5032 C52.6524,23.3476 52.9524,23.0524 53.1024,22.6648 C53.3266,22.0836 53.168,21.425 52.7046,21.0086 L44.0876,13.2758 L43.4282,4.7094 L44.5046,2.0664 C44.818,1.2992 44.4492,0.4234 43.682,0.111 C42.9148,-0.2016 42.0398,0.1672 41.7266,0.9344 L40.65,3.5774 L28.7844,13.9906 C28.3164,14.4016 28.1508,15.0586 28.368,15.6422 C28.5132,16.0304 28.8094,16.3296 29.1742,16.489 C22.5086,23.5618 13.9664,35.0602 6.8438,52.5446 C1.1812,66.443 -0.9836,77.6782 0.4094,85.9376 C1.496,92.3804 4.3976,94.5984 4.725,94.8296 C4.9124,94.9632 5.129,95.0508 5.3562,95.0876 C5.4446,95.1008 5.6922,95.1336 6.0836,95.1336 C7.4484,95.1336 10.5532,94.7344 14.657,91.7422 C21.4258,86.8078 27.729,77.2586 33.3914,63.3602 C36.4344,55.8906 38.529,49.021 39.943,42.8454 C41.3024,51.7368 43.846,60.939 47.5484,70.3234 C53.0554,84.2844 59.2524,93.9032 65.9656,98.9124 C70.114,102.0086 73.254,102.4 74.5774,102.4 C74.9242,102.4 75.146,102.3734 75.229,102.361 C75.4562,102.3274 75.6734,102.2414 75.8624,102.111 C76.1922,101.8828 79.1188,99.6968 80.2766,93.2672 C81.7618,85.0234 79.7218,73.7648 74.214,59.804 Z M71.2578,89.3554 C70.9054,90.1664 70.2578,90.7922 69.4352,91.1172 C69.3602,91.1468 69.2836,91.1726 69.207,91.1968 C68.2968,89.6032 67.2828,87.7054 66.161,85.4454 C66.4148,85.2438 66.6946,85.0766 67.004,84.9546 C67.8266,84.6296 68.7274,84.6454 69.5382,84.9976 C70.35,85.35 70.9758,85.9968 71.3008,86.8204 C71.6258,87.643 71.6102,88.5438 71.2578,89.3554 Z M34.3946,24.864 C34.7376,25.6796 34.743,26.5804 34.4094,27.3992 C34.0758,28.2188 33.4422,28.8594 32.6274,29.2024 C31.8118,29.546 30.911,29.5516 30.0922,29.2172 C29.975,29.1696 29.8632,29.1148 29.754,29.0554 C30.8594,26.9406 31.911,25.0016 32.9032,23.229 C33.5726,23.5852 34.096,24.1554 34.3946,24.864 Z M28.632,45.832 C28.2984,46.6508 27.6656,47.2914 26.85,47.6344 C26.0344,47.9782 25.1344,47.9836 24.3148,47.6492 C23.079,47.146 22.2688,45.9586 22.2508,44.6234 C22.2508,44.6024 22.2484,44.5812 22.2468,44.5594 C22.6242,43.7218 22.9976,42.904 23.3688,42.0976 C23.379,42.089 23.3906,42.0812 23.4008,42.0726 C24.3492,41.257 25.657,41.043 26.814,41.514 C28.5054,42.2032 29.321,44.1398 28.632,45.832 Z M24.986,52.2102 C25.329,53.025 25.3344,53.9258 25.0008,54.7454 C24.6664,55.5648 24.0336,56.2046 23.218,56.5484 C22.4032,56.8914 21.5024,56.8968 20.6836,56.5632 C19.864,56.229 19.2234,55.596 18.8804,54.7812 C18.5882,54.0882 18.5438,53.3352 18.7406,52.6218 C18.8554,52.3476 18.971,52.075 19.086,51.8032 C19.6898,50.7852 20.7882,50.1828 21.9376,50.1828 C22.3532,50.1828 22.775,50.2618 23.1828,50.4282 C24.0024,50.7618 24.6422,51.3946 24.986,52.2102 Z M21.3546,61.1234 C21.6976,61.939 21.7032,62.839 21.3696,63.6586 C21.0352,64.4782 20.4024,65.118 19.5868,65.4618 C18.771,65.8046 17.871,65.8102 17.0516,65.4766 C16.2328,65.143 15.5922,64.5094 15.2484,63.6946 C14.9688,63.029 14.9172,62.307 15.0882,61.6188 C15.1938,61.3476 15.3,61.0766 15.4086,60.8008 C15.7664,60.154 16.3242,59.6468 17.0164,59.3562 C17.4304,59.182 17.8656,59.0946 18.3016,59.0946 C18.7242,59.0946 19.1476,59.1766 19.5516,59.3414 C20.3704,59.675 21.011,60.3078 21.3546,61.1234 Z M17.7226,70.0368 C18.0664,70.8524 18.071,71.7524 17.7376,72.5718 C17.0484,74.2632 15.1118,75.0782 13.4204,74.3898 C12.2906,73.9296 11.514,72.8984 11.379,71.6882 C11.6796,70.811 11.9968,69.9024 12.3368,68.9546 C12.375,68.9258 12.4132,68.8954 12.4492,68.8624 C13.4032,68.004 14.732,67.7704 15.9196,68.2546 C16.739,68.5882 17.3796,69.221 17.7226,70.0368 Z M9.8562,76.3296 C10.1782,76.3594 10.4954,76.4376 10.8032,76.5624 C12.4946,77.2524 13.3102,79.189 12.6204,80.8804 C11.9312,82.571 9.9946,83.3868 8.3032,82.6984 C8.229,82.668 8.1554,82.6336 8.0836,82.5984 C8.5266,80.8164 9.1046,78.7414 9.8562,76.3296 Z M27.946,38.736 C26.9828,38.3438 26.2656,37.5258 25.9968,36.5266 C26.6546,35.1688 27.2992,33.8632 27.9296,32.611 C28.7328,32.279 29.6344,32.2704 30.4454,32.6008 C31.2648,32.9352 31.9054,33.568 32.2484,34.3828 C32.5922,35.1984 32.5968,36.0992 32.2632,36.9188 C31.9296,37.7382 31.2968,38.3782 30.4812,38.721 C29.6656,39.0648 28.7648,39.0696 27.946,38.736 Z M33.7618,13.6438 C33.7554,13.639 33.75,13.6344 33.7438,13.6296 L40.6398,7.5774 L41.3438,16.7242 C41.336,16.7234 41.3274,16.7226 41.3196,16.7218 L38.589,14.0882 C38.3118,13.8204 37.943,13.6704 37.557,13.668 L33.7618,13.6438 Z M69.261,77.2782 C69.586,78.1008 69.5704,79.0016 69.218,79.8132 C68.8656,80.625 68.218,81.2508 67.3954,81.575 C66.261,82.0226 64.9868,81.8132 64.0524,81.032 C63.6632,80.1882 63.264,79.3086 62.8532,78.386 C62.861,78.3406 62.871,78.296 62.875,78.2492 C62.971,76.9704 63.771,75.8828 64.964,75.4124 C66.6624,74.7422 68.5906,75.579 69.261,77.2782 Z M65.729,68.325 C66.0532,69.1476 66.0382,70.0484 65.686,70.8594 C65.3336,71.671 64.686,72.2968 63.8632,72.6218 C63.0398,72.9468 62.1398,72.9312 61.3282,72.579 C60.6656,72.2914 60.1304,71.8046 59.7782,71.1882 C59.6672,70.9196 59.557,70.6508 59.4446,70.3766 C59.257,69.6618 59.3102,68.9094 59.6094,68.221 C59.9618,67.4094 60.6094,66.7836 61.432,66.4586 C61.8258,66.3032 62.2376,66.2258 62.6484,66.2258 C63.096,66.2258 63.5438,66.318 63.9672,66.5016 C64.7782,66.8546 65.404,67.5016 65.729,68.325 Z M62.1968,59.3718 C62.8672,61.071 62.0296,62.9984 60.3312,63.6688 C59.5078,63.993 58.6078,63.9782 57.796,63.6258 C57.107,63.3266 56.554,62.8132 56.2032,62.1618 C56.1,61.8898 55.9976,61.6204 55.896,61.3508 C55.7296,60.6578 55.7882,59.9336 56.0774,59.268 C56.4296,58.4562 57.0774,57.8304 57.9,57.5054 C58.2976,57.3492 58.7078,57.275 59.1118,57.275 C60.432,57.275 61.6836,58.0704 62.1968,59.3718 Z M58.6648,50.418 C59.3352,52.1172 58.4984,54.0446 56.7992,54.7148 C55.5578,55.2046 54.1516,54.9054 53.2164,53.9532 C53.2016,53.9376 53.1852,53.9242 53.1696,53.9094 C52.8632,53.043 52.568,52.1938 52.2796,51.3546 C52.2812,51.3414 52.2844,51.3282 52.2852,51.314 C52.4078,50.0696 53.2054,49.011 54.368,48.5524 C55.1906,48.2274 56.0914,48.243 56.9032,48.5954 C57.714,48.9476 58.3398,49.5954 58.6648,50.418 Z M55.1328,41.4648 C55.8032,43.164 54.9656,45.0914 53.2664,45.7618 C52.2992,46.143 51.2156,46.0476 50.3312,45.511 C49.8688,44.0742 49.4328,42.6852 49.0234,41.3446 C49.375,40.5492 50.0204,39.9204 50.836,39.5992 C51.6586,39.2742 52.5586,39.2898 53.3704,39.6422 C54.182,39.9946 54.8078,40.6422 55.1328,41.4648 Z M48.346,31.2774 C49.1578,31.6296 49.7836,32.2774 50.1086,33.1008 C50.4336,33.9234 50.418,34.8234 50.0656,35.6352 C49.7132,36.4468 49.0656,37.0726 48.2422,37.3976 C48.125,37.4438 48.0062,37.4812 47.886,37.514 C47.2242,35.221 46.6454,33.0922 46.1382,31.1258 C46.8688,30.9204 47.6406,30.971 48.346,31.2774 Z M47.764,20.6062 L44.639,20.5914 C44.6398,20.5446 44.643,20.4976 44.639,20.45 L44.4204,17.6054 L47.764,20.6062 Z M9.6218,53.6758 C17.2648,34.9148 26.539,23.2602 33.2156,16.6398 L33.2524,16.6398 C28.5446,24.4812 21.7766,37.1484 14.271,55.5704 C7.236,72.8376 4.6828,82.529 3.957,87.9532 C3.7312,87.2242 3.5282,86.3914 3.3672,85.439 C2.475,80.1438 2.8352,70.3352 9.6218,53.6758 Z M30.6124,62.2282 C23.9672,78.5398 17.5062,85.8148 13.257,89.0446 C10.4804,91.1546 8.1352,91.9172 6.75,92.0946 C6.6562,91.143 6.6758,89.2024 7.4102,85.5664 C8.1132,85.821 8.8344,85.943 9.5454,85.943 C12.0368,85.943 14.4024,84.4578 15.3992,82.0118 C15.9984,80.5398 15.9992,78.9704 15.5164,77.5742 C17.6804,77.2774 19.6344,75.868 20.5156,73.704 C21.1524,72.1422 21.1422,70.4266 20.4876,68.8726 C20.4196,68.711 20.3446,68.5546 20.264,68.4016 C21.9648,67.843 23.4204,66.5734 24.1468,64.7906 C24.8734,63.007 24.721,61.0812 23.8954,59.4938 C24.0594,59.4398 24.2218,59.3804 24.382,59.3132 C25.936,58.6586 27.1422,57.4382 27.7782,55.8766 C28.5046,54.0938 28.3524,52.168 27.5266,50.5796 C27.6906,50.5266 27.8532,50.4672 28.0132,50.3992 C29.568,49.7454 30.7734,48.525 31.4102,46.9632 C32.1368,45.1804 31.9844,43.254 31.1578,41.6664 C31.3218,41.6124 31.4844,41.554 31.6454,41.486 C33.1992,40.832 34.4054,39.6118 35.0414,38.05 C35.6774,36.4882 35.668,34.7726 35.0132,33.2188 C34.7946,32.7 34.5118,32.221 34.1758,31.7882 C35.5438,31.1032 36.6046,29.961 37.1876,28.5312 C38.4062,25.5382 37.1532,22.1438 34.3868,20.6218 C35.2296,19.1672 36.0196,17.8484 36.7492,16.6624 L36.9382,16.6632 L39.6172,19.2484 C39.7672,28.65 38.2562,43.4672 30.6124,62.2282 Z M50.339,69.2226 C45.2632,56.3562 42.4156,43.8648 41.875,32.096 C41.8742,32.0774 41.871,32.0594 41.8696,32.0414 C42.043,30.6672 42.1828,29.3446 42.2914,28.0742 C44.4118,37.0102 48.2226,50.1774 55.0094,67.3804 C61.8516,84.725 66.7008,93.496 69.9226,97.9188 C69.257,97.5476 68.5336,97.086 67.7602,96.5086 C59.9624,90.6898 53.9828,78.4586 50.339,69.2226 Z" id="Fill-27" fill="#000000" mask="url(#mask-2)"></path>
                </g>
            </g>
        </g>
    </g>
</svg>