<?xml version="1.0" encoding="UTF-8"?>
<svg width="94px" height="85px" viewBox="0 0 94 85" version="1.1" xmlns="http://www.w3.org/2000/svg" xmlns:xlink="http://www.w3.org/1999/xlink">
    <!-- Generator: sketchtool 64 (101010) - https://sketch.com -->
    <title>5036C21B-362C-484B-BA26-44214089D7B1</title>
    <desc>Created with sketchtool.</desc>
    <defs>
        <polygon id="path-1" points="0.0109160156 0.00727734375 93.15 0.00727734375 93.15 84.7475789 0.0109160156 84.7475789"></polygon>
    </defs>
    <g id="Page-1" stroke="none" stroke-width="1" fill="none" fill-rule="evenodd">
        <g id="iPhone-11-Copy" transform="translate(-257.000000, -270.000000)">
            <g id="013-potato" transform="translate(257.000000, 270.000000)">
                <path d="M49.1235258,29.3580782 C47.8059627,27.1585011 46.3654125,25.2496538 45.0314754,23.7765375 C35.4457582,13.1860011 38.1804021,4.25124229 27.862766,1.85208398 C7.75783037,-2.82415518 -1.31829082,27.0284186 2.05948828,41.4666686 C5.43817705,55.9047366 15.2041904,72.9575543 34.876488,69.8945203 C37.6375122,69.465157 44.7443842,65.722783 46.9324995,61.8936267 L50.7352755,52.643395 C53.854527,45.0562184 53.339291,36.3959974 49.1235258,29.3580782 Z" id="Fill-1" fill="#F0C382"></path>
                <path d="M10.169724,40.0104721 C6.55106484,32.6414338 5.59864248,19.8158432 8.9651417,9.83642168 C2.45191904,18.8208483 0.0491220703,32.8732172 2.05948828,41.4666686 C5.43817705,55.9047366 15.2041904,72.9575543 34.876488,69.8945203 C37.6375122,69.465157 44.7443842,65.722783 46.9324995,61.8936267 L47.4015243,60.753085 C29.5101747,67.1327684 16.5716033,53.0449225 10.169724,40.0104721 Z" id="Fill-3" fill="#E3AA75"></path>
                <path d="M65.5302973,34.1538478 C62.4998294,34.8510173 59.7289808,35.8345503 57.2323061,37.1108145 C53.9071058,38.8100742 51.0401962,41.2861904 48.6474056,44.1536458 C47.068222,46.0455732 45.6716997,48.1001493 44.6668805,50.3501221 C43.5623616,52.8247828 42.7331083,55.5687053 42.191492,58.5862559 C39.6387817,72.8081868 51.1055104,83.383077 64.8011074,83.383077 C78.4957948,83.383077 91.785498,72.2809433 91.785498,58.5862559 C91.785498,44.8913865 83.7633182,29.9600965 65.5302973,34.1538478 Z" id="Fill-4" fill="#FFF6D8"></path>
                <g id="Group-8">
                    <mask id="mask-2" fill="white">
                        <use xlink:href="#path-1"></use>
                    </mask>
                    <g id="Clip-6"></g>
                    <path d="M68.0759121,78.6684498 C54.3810428,78.6684498 42.9143142,68.0928319 45.4670244,53.8714468 C46.0086407,50.8540781 46.837894,48.1101557 47.9424129,45.6354949 C48.180382,45.1024295 48.4440038,44.5815536 48.7234538,44.0697744 C48.6992566,44.0990657 48.6714208,44.1245364 48.6474056,44.1531 C47.068222,46.0455732 45.6716997,48.0994216 44.6668805,50.3501221 C43.5623616,52.8247828 42.7331083,55.5687053 42.191492,58.5862559 C39.6387817,72.8081868 51.1055104,83.383077 64.8011074,83.383077 C74.7881701,83.383077 84.5345347,77.4660507 89.0934267,68.9570165 C83.9388841,74.8529385 76.0880856,78.6684498 68.0759121,78.6684498 Z" id="Fill-5" fill="#FFEDB1" mask="url(#mask-2)"></path>
                    <path d="M83.8728422,36.2211592 C78.9726428,32.3195933 72.5240065,31.144848 65.2239211,32.8240951 C61.0010604,33.7956205 57.2685108,35.3164034 54.0648422,37.3596996 C53.1566297,32.8837693 50.1574544,27.4066585 46.0426623,22.8610477 C42.1581981,18.5685064 40.3921688,14.6016264 38.8342714,11.1021337 C36.6759932,6.25396729 34.8119016,2.06731143 28.1720531,0.523059082 C21.6366346,-0.996996094 15.5738795,0.811605762 10.6389308,5.75292217 C6.54396943,9.85352344 3.29045098,16.0918444 1.47893818,23.3195203 C-0.186845801,29.9628255 -0.459018457,36.6909117 0.731373047,41.7779569 C2.75174561,50.413435 6.52686768,58.0126192 11.361571,63.1764404 C14.3350937,66.3524552 17.728519,68.6664686 21.4476056,70.0537122 C24.2390127,71.095464 27.2254526,71.618523 30.3687193,71.6177953 C31.9051485,71.6177953 33.4799657,71.4935347 35.0862574,71.243376 C37.4171906,70.8802365 39.5989383,70.2554766 41.5967511,69.3891088 C42.4203645,71.8153752 43.6889874,74.0839052 45.3853362,76.1122828 C49.9762485,81.6001277 57.0532834,84.7475789 64.8011074,84.7475789 C71.79136,84.7475789 78.9115131,81.9745471 84.3369548,77.139116 C90.0201964,72.0726293 93.15,65.4840861 93.15,58.5862559 C93.15,49.2059417 89.6819818,40.8455473 83.8728422,36.2211592 Z M82.5210756,75.1016417 C77.5890378,79.4971573 71.1303952,82.018575 64.8011074,82.018575 C57.9649526,82.018575 51.4893902,79.1560318 47.4783003,74.361172 C43.9042148,70.0877338 42.5035081,64.5715072 43.5347077,58.8271359 C44.3555921,54.2545989 45.8849259,50.2584275 48.0801366,46.9496013 C48.4965826,46.3219304 48.3253831,45.4748476 47.6978941,45.0584016 C47.0696774,44.6419556 46.2231404,44.8131551 45.8059667,45.440826 C43.4031697,49.0616684 41.7359303,53.4038774 40.8482763,58.3451938 C40.3330403,61.2177434 40.353053,64.0435359 40.8839353,66.7241455 C39.0012864,67.5841456 36.9139623,68.196716 34.6661728,68.5471201 C29.0375112,69.4225846 10.1464365,70.0380659 3.38778545,41.1561079 C1.21095,31.8511143 4.44609316,15.8154873 12.569792,7.68105439 C16.8636067,3.38141777 21.9051686,1.86773027 27.5536608,3.18092695 C32.871034,4.41752959 34.2511822,7.51822383 36.3412354,12.2122925 C37.901134,15.7159696 39.8420016,20.0767359 44.0201065,24.6925731 C48.1811098,29.2898531 51.1830141,35.043503 51.5789016,39.1370089 C50.9272154,39.657339 50.2997265,40.2002288 49.7033481,40.7716822 C49.1597306,41.2932858 49.1411733,42.1567427 49.6629589,42.701088 C50.1845625,43.2447056 51.0480193,43.2632628 51.5916369,42.7416592 C55.2175734,39.2656359 60.0097043,36.8237232 65.8357638,35.4841462 C72.3897396,33.9768264 77.8861354,34.9425299 82.1728547,38.355968 C87.3381313,42.4673033 90.4209961,50.0302828 90.4209961,58.5862559 C90.4209961,64.6952221 87.6152162,70.5603973 82.5210756,75.1016417 Z" id="Fill-7" fill="#000000" mask="url(#mask-2)"></path>
                </g>
                <path d="M18.3596467,21.1546925 C17.8265813,20.6225367 16.9623967,20.6225367 16.4302409,21.1546925 C15.8971755,21.6877579 15.8971755,22.5519425 16.4302409,23.0842802 L17.8884387,24.5432057 C18.1549714,24.8097384 18.50392,24.9427318 18.8535964,24.9427318 C19.202545,24.9427318 19.5514937,24.8097384 19.8180264,24.5432057 C20.3509099,24.0103222 20.3509099,23.1461376 19.8180264,22.6137999 L18.3596467,21.1546925 Z" id="Fill-9" fill="#000000"></path>
                <path d="M20.2976033,12.0034327 C19.5436705,12.0034327 18.9331014,12.6145477 18.9331014,13.3679347 C18.9331014,14.1218675 19.5436705,14.7324366 20.2976033,14.7324366 L20.3119761,14.7324366 C21.0651812,14.7324366 21.6692007,14.1218675 21.6692007,13.3679347 C21.6692007,12.6145477 21.0509903,12.0034327 20.2976033,12.0034327 Z" id="Fill-10" fill="#000000"></path>
                <path d="M24.6732882,29.5074457 C23.9200831,29.5074457 23.3087862,30.1185606 23.3087862,30.8719477 C23.3087862,31.6251527 23.9200831,32.2364496 24.6732882,32.2364496 L24.687479,32.2364496 C25.4415938,32.2364496 26.0448855,31.6251527 26.0448855,30.8719477 C26.0448855,30.1185606 25.4266752,29.5074457 24.6732882,29.5074457 Z" id="Fill-11" fill="#000000"></path>
                <path d="M11.5598786,26.5899586 C10.8064916,26.5899586 10.1953767,27.2012555 10.1953767,27.9544605 C10.1953767,28.7078476 10.8064916,29.3189625 11.5598786,29.3189625 L11.5747972,29.3189625 C12.3281842,29.3189625 12.9322037,28.7078476 12.9322037,27.9544605 C12.9322037,27.2012555 12.3139934,26.5899586 11.5598786,26.5899586 Z" id="Fill-12" fill="#000000"></path>
            </g>
        </g>
    </g>
</svg>