<?xml version="1.0" encoding="UTF-8"?>
<svg width="104px" height="93px" viewBox="0 0 104 93" version="1.1" xmlns="http://www.w3.org/2000/svg" xmlns:xlink="http://www.w3.org/1999/xlink">
    <!-- Generator: sketchtool 64 (101010) - https://sketch.com -->
    <title>03C0AFE9-6876-4096-99D0-E3012EE92F28</title>
    <desc>Created with sketchtool.</desc>
    <defs>
        <polygon id="path-1" points="0.0121289062 0 103.5 0 103.5 92.1568447 0.0121289062 92.1568447"></polygon>
    </defs>
    <g id="Page-1" stroke="none" stroke-width="1" fill="none" fill-rule="evenodd">
        <g id="iPhone-11-Copy" transform="translate(-55.000000, -673.000000)">
            <g id="003-tomato" transform="translate(55.000000, 673.000000)">
                <path d="M33.9253594,14.1384639 C39.1110732,14.1384639 40.4068447,11.2390488 46.8889365,11.2390488 C54.9906416,11.2390488 66.333999,17.0380811 66.333999,32.986582 C66.333999,47.3997656 59.8785908,66.333999 33.9253594,66.333999 C7.97152148,66.333999 1.51611328,47.3997656 1.51611328,32.986582 C1.51611328,17.0380811 12.8592686,11.2390488 20.9617822,11.2390488 C27.4432676,11.2390488 28.7398477,14.1384639 33.9253594,14.1384639 Z" id="Fill-1" fill="#E6646E"></path>
                <path d="M43.6474863,58.2312832 C17.6942549,58.2312832 11.2390488,39.2980605 11.2390488,24.884877 C11.2390488,19.733124 12.4321289,15.6553857 14.30746,12.4755908 C7.77078809,14.9068301 1.51611328,21.1451309 1.51611328,32.986582 C1.51611328,47.3997656 7.97152148,66.333999 33.9253594,66.333999 C47.0231631,66.333999 55.1501367,61.5091201 59.9921982,54.8792578 C55.6793613,56.9773564 50.3096924,58.2312832 43.6474863,58.2312832 Z" id="Fill-2" fill="#DC4655"></path>
                <path d="M69.5746406,38.4453984 C74.7601523,38.4453984 76.0567324,35.5457812 82.5382178,35.5457812 C90.6407314,35.5457812 101.983887,41.3448135 101.983887,57.2933145 C101.983887,71.7067002 95.5284785,90.6407314 69.5746406,90.6407314 C43.6214092,90.6407314 37.166001,71.7067002 37.166001,57.2933145 C37.166001,41.3448135 48.5093584,35.5457812 56.6118721,35.5457812 C63.0931553,35.5457812 64.3897354,38.4453984 69.5746406,38.4453984 Z" id="Fill-3" fill="#FF8087"></path>
                <path d="M77.269623,51.75 C74.8098809,51.75 72.8160908,49.75621 72.8160908,47.2964678 L72.8160908,38.0079492 C71.8795371,38.2699336 70.844335,38.4453984 69.5754492,38.4453984 C68.3055527,38.4453984 67.2703506,38.2699336 66.333999,38.0079492 L66.333999,47.2964678 C66.333999,49.75621 64.3400068,51.75 61.8802646,51.75 C56.5564834,51.75 51.9141445,55.8521982 51.7546494,61.1735537 C51.5888877,66.6796729 56.0038096,71.1948604 61.4729355,71.1948604 L63.9925137,71.1948604 C65.1146396,73.1247715 67.1820117,74.4365127 69.5754492,74.4365127 C71.9680781,74.4365127 74.035248,73.1239629 75.1581826,71.1948604 L77.6771543,71.1948604 C83.1460781,71.1948604 87.561,66.6796729 87.3952383,61.1735537 C87.2357432,55.8521982 82.5934043,51.75 77.269623,51.75 Z" id="Fill-4" fill="#FFB4AF"></path>
                <path d="M55.0215703,60.8355615 C55.3427842,57.4653428 58.3663184,54.9906416 61.7516982,54.9906416 L62.0706885,54.9906416 C64.0036318,54.9906416 65.5553232,53.3987227 65.5229795,51.4665879 C65.4724424,48.4618535 63.6365303,45.7708535 60.8474883,44.6313428 L60.810293,44.6163838 C59.2327266,43.9713281 58.440709,43.6474863 56.6110635,43.6474863 C55.4503271,43.6474863 45.2679082,44.0303555 45.2679082,57.2933145 C45.2679082,66.468832 47.951833,77.0422061 59.2009893,80.962875 C62.3019463,82.0437627 65.5237881,79.6092891 65.5237881,76.3251855 L65.5237881,72.0050713 C65.5237881,69.7680967 63.7099102,67.9542188 61.4729355,67.9542188 C57.6826523,67.9542188 54.6526494,64.7016504 55.0215703,60.8355615 Z" id="Fill-5" fill="#E6646E"></path>
                <g id="Group-9">
                    <mask id="mask-2" fill="white">
                        <use xlink:href="#path-1"></use>
                    </mask>
                    <g id="Clip-7"></g>
                    <path d="M84.1285195,60.8355615 C83.8071035,57.4653428 80.7835693,54.9906416 77.3983916,54.9906416 L77.0794014,54.9906416 C75.1462559,54.9906416 73.5945645,53.3987227 73.6271104,51.4665879 C73.6776475,48.4618535 75.5135596,45.7708535 78.3026016,44.6313428 L78.3395947,44.6163838 C79.9173633,43.9713281 80.7093809,43.6474863 82.5390264,43.6474863 C83.6997627,43.6474863 93.8821816,44.0303555 93.8821816,57.2933145 C93.8821816,66.468832 91.1982568,77.0422061 79.9480898,80.962875 C76.8471328,82.0437627 73.6263018,79.6092891 73.6263018,76.3251855 L73.6263018,72.0050713 C73.6263018,69.7680967 75.4399775,67.9542188 77.6771543,67.9542188 C81.4674375,67.9542188 84.4972383,64.7016504 84.1285195,60.8355615 Z" id="Fill-6" fill="#E6646E" mask="url(#mask-2)"></path>
                    <path d="M96.3103887,39.3091787 C92.560333,35.9539189 87.5413916,34.029668 82.5390264,34.029668 C78.8188887,34.029668 76.630834,34.924377 74.7001143,35.7131602 C73.1043545,36.3654932 71.7255,36.9292852 69.5754492,36.9292852 C68.8812715,36.9292852 68.2685596,36.8700557 67.7023418,36.7689814 C67.7987666,35.5205127 67.8501123,34.253042 67.8501123,32.9873906 C67.8501123,23.4389092 63.9405615,17.9366309 60.6611074,15.0024463 C56.9110518,11.6471865 51.8913018,9.72293555 46.8889365,9.72293555 C43.8409424,9.72293555 41.8218838,10.3229121 40.1296992,10.9744365 L46.2343799,5.925375 C46.8794355,5.39170312 46.9702002,4.43614746 46.4365283,3.7910918 C45.9034629,3.14583398 44.9473008,3.05506934 44.302043,3.58894336 L35.4414727,10.9168242 L35.4414727,1.51611328 C35.4414727,0.679016602 34.7624561,0 33.9253594,0 C33.0884648,0 32.4092461,0.679016602 32.4092461,1.51611328 L32.4092461,10.9176328 L23.5486758,3.58894336 C22.9036201,3.05506934 21.9472559,3.14583398 21.4143926,3.7910918 C20.8805186,4.43614746 20.9704746,5.39170312 21.616541,5.925375 L27.7212217,10.9744365 C26.0290371,10.3237207 24.0097764,9.72293555 20.9617822,9.72293555 C15.959417,9.72293555 10.939667,11.6471865 7.18961133,15.0024463 C3.90955078,17.9366309 0,23.4389092 0,32.986582 C0,41.933874 2.40455566,50.0956172 6.77116406,55.9698486 C12.631043,63.8528291 21.7673438,67.8501123 33.9253594,67.8501123 C34.9061836,67.8501123 35.8781133,67.822418 36.8257852,67.7694551 C37.9446768,72.5310615 39.8398184,76.803873 42.4212539,80.2765811 C48.2819414,88.1595615 57.4172314,92.1568447 69.5754492,92.1568447 C81.7326563,92.1568447 90.868957,88.1595615 96.7288359,80.2765811 C101.095444,74.4025518 103.5,66.2408086 103.5,57.2933145 C103.5,47.7456416 99.5904492,42.2435654 96.3103887,39.3091787 Z M33.9245508,64.8178857 C22.7788945,64.8178857 14.4614971,61.2319746 9.2048291,54.1608223 C3.83455371,46.9364414 3.03222656,37.793874 3.03222656,32.986582 C3.03222656,16.9837031 14.7600703,12.7551621 20.9609736,12.7551621 C24.0849756,12.7551621 25.8181963,13.4634902 27.6524912,14.2128545 C29.3857119,14.9217891 31.1781621,15.6539707 33.9229336,15.6545771 L33.9269766,15.6545771 C36.671748,15.6545771 38.4641982,14.9217891 40.1976211,14.2128545 C42.0327246,13.4634902 43.7651367,12.7551621 46.8889365,12.7551621 C53.090042,12.7551621 64.8178857,16.9837031 64.8178857,32.986582 C64.8178857,33.9356689 64.7861484,34.8855645 64.7285361,35.8267676 C64.6361543,35.7889658 64.5429639,35.7509619 64.4497734,35.7131602 C62.5190537,34.9235684 60.330999,34.029668 56.6110635,34.029668 C51.6086982,34.029668 46.5897568,35.9531104 42.8397012,39.3083701 C39.5594385,42.2435654 35.6498877,47.7456416 35.6498877,57.2933145 C35.6498877,59.8595889 35.8490039,62.3603672 36.2334902,64.7624971 C35.4762422,64.7980752 34.7048438,64.8178857 33.9245508,64.8178857 Z M94.2951709,78.4675547 C89.0385029,85.538707 80.7211055,89.1246182 69.5746406,89.1246182 C58.4279736,89.1246182 50.1115869,85.538707 44.8549189,78.4675547 C39.4836328,71.2431738 38.6821143,62.0997979 38.6821143,57.2933145 C38.6821143,41.2904355 50.409958,37.0618945 56.6110635,37.0618945 C59.7348633,37.0618945 61.4672754,37.7702227 63.3017725,38.5195869 C65.0358018,39.2287236 66.828252,39.9615117 69.5746406,39.9615117 C72.3210293,39.9615117 74.1134795,39.2287236 75.8475088,38.5195869 C77.6818037,37.7702227 79.414418,37.0618945 82.5382178,37.0618945 C88.7399297,37.0618945 100.467773,41.2904355 100.467773,57.2933145 C100.467773,62.1006064 99.6654463,71.2431738 94.2951709,78.4675547 Z" id="Fill-8" fill="#000000" mask="url(#mask-2)"></path>
                </g>
                <path d="M93.3531592,48.3759404 C92.9401699,47.6478018 92.0147344,47.3926904 91.2857871,47.8056797 C90.5578506,48.2186689 90.3027393,49.1441045 90.7157285,49.8722432 C91.8101602,51.8021543 92.3652598,54.2988896 92.3652598,57.2933145 C92.3652598,62.4654844 91.4919785,66.8874814 89.7696738,70.4368037 C87.6392314,74.8272656 84.1663213,77.8879951 79.4489854,79.5320684 C78.4841309,79.8676348 77.4386191,79.7119805 76.5819141,79.1031094 C75.6801299,78.4629053 75.142415,77.4244688 75.142415,76.3251855 L75.142415,72.0050713 C75.142415,70.607417 76.2795,69.470332 77.6771543,69.470332 C77.7472998,69.470332 77.8176475,69.4672998 77.8879951,69.464874 L80.2127021,74.5895391 C80.4661963,75.1494902 81.0172529,75.4804072 81.5937803,75.4804072 C81.8038125,75.4804072 82.0162705,75.4361367 82.2192275,75.3445635 C82.9819336,74.9986875 83.3199258,74.0999355 82.9740498,73.3372295 L80.9099121,68.7856553 C81.5598193,68.4990088 82.1701055,68.124832 82.7260137,67.6732324 L85.2585293,69.8145908 C85.5435586,70.0555518 85.8910518,70.1732021 86.2369277,70.1732021 C86.6670996,70.1732021 87.09525,69.9898535 87.3952383,69.6354873 C87.9353789,68.9956875 87.8555303,68.0395254 87.2159326,67.4985762 L84.6694687,65.3460996 C85.0767979,64.6076514 85.3658701,63.8085586 85.5253652,62.9803564 L88.2022148,62.9803564 C89.0401201,62.9803564 89.7183281,62.3011377 89.7183281,61.4642432 C89.7183281,60.6271465 89.0401201,59.9481299 88.2022148,59.9481299 L85.5285996,59.9481299 C85.3745625,59.1694541 85.0982256,58.4320166 84.7230381,57.7513828 L88.1264092,54.9031113 C88.7692412,54.3660029 88.8537393,53.4098408 88.316833,52.7670088 C87.778916,52.1249854 86.8227539,52.0406895 86.1807305,52.5775957 L82.7852432,55.4185898 C82.2507627,54.9764912 81.6584678,54.5974629 81.0229131,54.2942402 L82.5010225,50.3143418 C82.7923184,49.5296016 82.3920645,48.6569268 81.6071221,48.3656309 C80.8221797,48.0733242 79.949707,48.4737803 79.6584111,49.2587227 L78.0814512,53.5038398 C77.8556514,53.4856465 77.6282344,53.4745283 77.3983916,53.4745283 L77.0232041,53.4745283 C75.9857783,53.4745283 75.1416064,52.6303564 75.1416064,51.5929307 C75.1416064,49.1426895 76.6071826,46.9615078 78.8750859,46.0346572 L78.9128877,46.0194961 C80.4360762,45.3964746 81.0063369,45.1635996 82.5382178,45.1635996 C82.8082881,45.1635996 84.242127,45.1951348 85.9155117,45.8159326 C86.7010605,46.1064199 87.5737354,45.706166 87.8642227,44.9212236 C88.1557207,44.1362812 87.7552646,43.2638086 86.9703223,42.9723105 C84.8651484,42.1922197 83.0458125,42.131373 82.5382178,42.131373 C80.4108076,42.131373 79.4150244,42.5380957 77.7654932,43.2124629 L77.7285,43.2282305 C74.3148193,44.6218418 72.1093799,47.9059453 72.1093799,51.5929307 C72.1093799,54.302124 74.3140107,56.5067549 77.0232041,56.5067549 L77.3983916,56.5067549 C80.0863594,56.5067549 82.3795312,58.4714355 82.6186729,60.9792891 C82.7545166,62.4030205 82.304332,63.7636816 81.3522129,64.811417 C80.4124248,65.8452041 79.0723828,66.4381055 77.6763457,66.4381055 C74.6069238,66.4381055 72.1093799,68.9358516 72.1093799,72.0050713 L72.1093799,76.3251855 C72.1093799,78.4042822 73.1247715,80.3665371 74.8256484,81.5747783 C75.9099727,82.3455703 77.1560156,82.7417813 78.4186348,82.7411755 C79.0968428,82.7411755 79.7807109,82.6265566 80.4471943,82.3952988 C90.2277422,78.9862676 95.3974863,70.3066201 95.3974863,57.2933145 C95.3974863,53.7674414 94.7097773,50.7677607 93.3531592,48.3759404 Z" id="Fill-10" fill="#000000"></path>
                <path d="M61.7516982,56.5067549 L62.125875,56.5067549 C64.8350684,56.5067549 67.0399014,54.3029326 67.0399014,51.5929307 C67.0399014,47.9059453 64.8344619,44.6218418 61.4223984,43.2290391 L61.3835859,43.2132715 C59.7340547,42.5389043 58.7382715,42.131373 56.6110635,42.131373 C55.7383887,42.131373 52.659668,42.2829844 49.6763613,44.2270459 C44.7799219,47.417959 43.7517949,53.0938828 43.7517949,57.2933145 C43.7517949,70.3066201 48.9215391,78.9862676 58.7028955,82.3952988 C59.3685703,82.6265566 60.0522363,82.7411748 60.7314551,82.7411748 C61.9940742,82.7411748 63.2393086,82.3455703 64.3234307,81.5747783 C66.0243076,80.3665371 67.0399014,78.4042822 67.0399014,76.3251855 L67.0399014,74.4357041 C67.0399014,73.5977988 66.3606826,72.9195908 65.5237881,72.9195908 C64.6866914,72.9195908 64.0076748,73.5977988 64.0076748,74.4357041 L64.0076748,76.3251855 C64.0076748,77.4244687 63.4691514,78.4629053 62.5673672,79.1031094 C61.71046,79.7119805 60.6657568,79.8676348 59.7000938,79.5312598 C54.9827578,77.8871865 51.5106563,74.8272656 49.3802139,70.4368037 C47.6581113,66.8874814 46.7848301,62.4654844 46.7848301,57.2933145 C46.7848301,52.2751816 48.3142852,48.733541 51.3323613,46.7666367 C53.6736445,45.2410225 56.1412705,45.1635996 56.6118721,45.1635996 C58.1429443,45.1635996 58.7130029,45.3964746 60.235585,46.0186875 L60.2741953,46.0346572 C62.5420986,46.9609014 64.0076748,49.1426895 64.0076748,51.5929307 C64.0076748,52.6303564 63.1635029,53.4745283 62.125875,53.4745283 L61.7516982,53.4745283 C61.5218555,53.4745283 61.2936299,53.4856465 61.0678301,53.5038398 L59.4916787,49.2587227 C59.1995742,48.4729717 58.3268994,48.0733242 57.541957,48.3648223 C56.7572168,48.6561182 56.3567607,49.5296016 56.6488652,50.3143418 L58.1271768,54.2942402 C57.4906113,54.5966543 56.8985186,54.9756826 56.3638359,55.4185898 L52.9683486,52.5775957 C52.3271338,52.0406895 51.3701631,52.1249854 50.8332568,52.7670088 C50.295542,53.4098408 50.3808486,54.3660029 51.0226699,54.9031113 L54.426041,57.7513828 C54.0518643,58.4320166 53.7755273,59.1694541 53.6214902,59.9481299 L50.9468643,59.9481299 C50.1099697,59.9481299 49.430751,60.6271465 49.430751,61.4642432 C49.430751,62.3011377 50.1099697,62.9803564 50.9468643,62.9803564 L53.623916,62.9803564 C53.7840176,63.8085586 54.0722813,64.6076514 54.4798125,65.3460996 L51.9331465,67.4985762 C51.2943574,68.0395254 51.2139023,68.9956875 51.7546494,69.6354873 C52.0548398,69.9898535 52.4819795,70.1732021 52.9131621,70.1732021 C53.2590381,70.1732021 53.6065313,70.0555518 53.8915605,69.8145908 L56.423874,67.6732324 C56.9789736,68.124832 57.5902705,68.4990088 58.2399756,68.7856553 L56.17604,73.3372295 C55.8301641,74.0999355 56.1679541,74.9986875 56.9308623,75.3445635 C57.1338193,75.4369453 57.3462773,75.4804072 57.555501,75.4804072 C58.1326348,75.4804072 58.6838936,75.1494902 58.9373877,74.5895391 L61.2612861,69.464874 C61.3314316,69.4664912 61.4017793,69.470332 61.4729355,69.470332 C61.8258867,69.470332 62.1677197,69.5414883 62.4875186,69.6811729 C63.2542676,70.0167393 64.148168,69.6670225 64.4837344,68.8994648 C64.8193008,68.1319072 64.469584,67.2380068 63.702835,66.903249 C62.9969326,66.5945684 62.2467598,66.4381055 61.4729355,66.4381055 C60.0766963,66.4381055 58.7366543,65.8452041 57.7970684,64.811417 C56.8447471,63.7636816 56.3947646,62.4022119 56.5304063,60.9792891 C56.76975,58.4714355 59.0629219,56.5067549 61.7516982,56.5067549 Z" id="Fill-11" fill="#000000"></path>
            </g>
        </g>
    </g>
</svg>